<svg id="svg" version="1.1" xmlns="http://www.w3.org/2000/svg" xmlns:xlink="http://www.w3.org/1999/xlink" width="400" height="400" viewBox="0, 0, 400,400"><g id="svgg"><path id="path0" d="M47.467 53.467 C 47.015 53.918,47.148 354.800,47.600 354.800 C 47.866 354.800,48.000 304.341,48.000 204.223 L 48.000 53.646 49.700 53.493 L 51.400 53.340 49.567 53.270 C 48.558 53.231,47.613 53.320,47.467 53.467 M169.599 53.500 C 169.599 53.665,171.624 53.753,174.099 53.695 C 182.291 53.504,183.088 53.352,176.300 53.276 C 172.615 53.234,169.600 53.335,169.599 53.500 M206.476 53.499 C 209.268 53.567,213.948 53.568,216.876 53.499 C 219.804 53.431,217.520 53.375,211.800 53.374 C 206.080 53.374,203.684 53.430,206.476 53.499 M346.400 204.000 C 346.400 286.940,346.535 354.800,346.700 354.800 C 346.865 354.800,346.955 287.040,346.899 204.222 L 346.798 53.644 348.699 53.494 L 350.600 53.344 348.500 53.272 L 346.400 53.200 346.400 204.000 M174.000 67.408 L 174.000 78.000 178.300 77.916 L 182.600 77.831 178.500 77.702 L 174.400 77.572 174.400 67.586 L 174.400 57.600 178.500 57.594 C 181.137 57.590,182.394 57.457,182.021 57.222 C 181.703 57.020,179.768 56.847,177.721 56.836 L 174.000 56.815 174.000 67.408 M209.921 57.499 C 212.188 57.570,215.788 57.570,217.921 57.498 C 220.055 57.426,218.200 57.368,213.800 57.368 C 209.400 57.368,207.655 57.427,209.921 57.499 M185.853 59.428 C 186.594 60.214,187.200 61.024,187.200 61.228 C 187.200 61.433,187.380 61.600,187.600 61.600 C 188.399 61.600,187.968 60.729,186.500 59.382 C 184.538 57.580,184.137 57.609,185.853 59.428 M141.600 73.767 C 141.600 81.339,141.709 87.819,141.843 88.167 C 142.056 88.722,143.367 88.800,152.443 88.800 L 162.800 88.800 162.800 86.600 L 162.800 84.400 154.613 84.400 L 146.426 84.400 146.293 79.999 L 146.159 75.599 146.179 80.099 L 146.200 84.600 154.300 84.708 L 162.400 84.817 162.400 86.408 L 162.400 88.000 152.190 88.000 L 141.980 88.000 142.090 74.000 C 142.150 66.300,142.065 60.000,141.900 60.000 C 141.735 60.000,141.600 66.195,141.600 73.767 M162.067 61.700 L 162.000 63.600 154.000 63.600 L 146.000 63.600 146.083 67.700 L 146.166 71.800 146.297 68.160 L 146.428 64.520 150.676 64.260 C 153.013 64.117,156.522 64.000,158.475 64.000 C 162.427 64.000,162.559 63.908,162.294 61.342 C 162.142 59.877,162.131 59.895,162.067 61.700 M220.703 66.700 C 220.948 69.272,221.105 69.482,221.154 67.300 C 221.179 66.145,221.056 65.200,220.880 65.200 C 220.704 65.200,220.625 65.875,220.703 66.700 M188.914 67.400 C 188.917 68.500,188.995 68.903,189.087 68.295 C 189.179 67.686,189.177 66.786,189.082 66.295 C 188.987 65.803,188.911 66.300,188.914 67.400 M186.247 75.200 C 185.665 76.080,185.266 76.800,185.361 76.800 C 185.455 76.800,186.103 76.080,186.800 75.200 C 187.497 74.320,187.896 73.600,187.687 73.600 C 187.478 73.600,186.830 74.320,186.247 75.200 M253.200 91.220 L 253.200 105.640 255.500 105.520 L 257.800 105.400 257.905 91.100 C 257.963 83.235,257.873 76.800,257.705 76.800 C 257.537 76.800,257.449 83.190,257.510 91.000 L 257.620 105.200 255.600 105.200 L 253.580 105.200 253.690 91.000 C 253.751 83.190,253.665 76.800,253.500 76.800 C 253.335 76.800,253.200 83.289,253.200 91.220 M169.599 81.700 C 169.600 81.865,172.705 81.966,176.500 81.924 C 183.537 81.847,182.722 81.692,174.299 81.504 C 171.714 81.447,169.599 81.535,169.599 81.700 M212.200 81.600 L 202.200 81.821 212.300 81.911 C 218.826 81.968,222.400 81.858,222.400 81.600 C 222.400 81.380,222.355 81.240,222.300 81.289 C 222.245 81.339,217.700 81.478,212.200 81.600 M114.162 82.154 C 114.045 82.459,114.019 83.494,114.105 84.454 C 114.260 86.194,114.260 86.192,114.330 84.116 L 114.400 82.032 117.700 81.898 L 121.000 81.763 117.687 81.681 C 115.176 81.620,114.323 81.734,114.162 82.154 M238.300 82.298 C 240.335 82.371,243.665 82.371,245.700 82.298 C 247.735 82.225,246.070 82.166,242.000 82.166 C 237.930 82.166,236.265 82.225,238.300 82.298 M235.123 86.299 C 237.831 86.368,242.151 86.368,244.723 86.299 C 247.295 86.229,245.080 86.172,239.800 86.173 C 234.520 86.173,232.415 86.230,235.123 86.299 M276.400 114.600 C 276.400 118.230,276.528 121.200,276.685 121.200 C 276.842 121.200,279.959 118.230,283.612 114.600 C 287.265 110.970,290.126 108.000,289.970 108.000 C 289.815 108.000,286.878 110.790,283.444 114.201 L 277.200 120.402 277.200 114.201 C 277.200 110.334,277.049 108.000,276.800 108.000 C 276.549 108.000,276.400 110.467,276.400 114.600 M291.300 112.203 C 289.045 114.421,287.200 116.378,287.200 116.553 C 287.200 116.728,289.133 114.978,291.495 112.664 C 293.857 110.350,295.702 108.392,295.595 108.313 C 295.488 108.235,293.555 109.985,291.300 112.203 M124.307 110.690 C 125.026 110.779,126.106 110.777,126.707 110.686 C 127.308 110.595,126.720 110.522,125.400 110.524 C 124.080 110.526,123.588 110.601,124.307 110.690 M107.705 111.087 C 108.314 111.179,109.214 111.177,109.705 111.082 C 110.197 110.987,109.700 110.911,108.600 110.914 C 107.500 110.917,107.097 110.995,107.705 111.087 M103.388 112.700 L 102.685 113.800 103.742 112.830 C 104.886 111.782,104.990 111.600,104.446 111.600 C 104.251 111.600,103.775 112.095,103.388 112.700 M102.493 115.200 C 102.493 115.970,102.575 116.285,102.676 115.900 C 102.776 115.515,102.776 114.885,102.676 114.500 C 102.575 114.115,102.493 114.430,102.493 115.200 M278.478 124.592 L 276.400 126.785 276.400 131.392 L 276.400 136.000 274.400 136.000 C 273.300 136.000,272.400 136.180,272.400 136.400 C 272.400 137.106,276.681 136.888,276.957 136.167 C 277.091 135.819,277.200 133.521,277.200 131.060 L 277.200 126.585 279.260 124.493 C 280.393 123.342,281.148 122.400,280.938 122.400 C 280.728 122.400,279.621 123.387,278.478 124.592 M281.639 124.015 C 281.990 124.557,282.526 125.402,282.830 125.892 C 283.134 126.383,283.622 126.876,283.913 126.988 C 284.205 127.100,283.853 126.369,283.130 125.363 C 281.732 123.415,280.566 122.362,281.639 124.015 M97.200 126.731 C 97.200 126.913,97.740 126.982,98.400 126.885 C 99.060 126.788,99.600 126.640,99.600 126.555 C 99.600 126.470,99.060 126.400,98.400 126.400 C 97.740 126.400,97.200 126.549,97.200 126.731 M285.042 128.772 C 285.459 129.481,286.039 130.261,286.330 130.505 C 286.622 130.749,286.469 130.284,285.990 129.473 C 285.511 128.661,284.932 127.881,284.702 127.740 C 284.473 127.598,284.626 128.062,285.042 128.772 M103.016 130.883 C 103.712 131.845,104.774 132.610,104.995 132.309 C 105.039 132.249,104.436 131.660,103.654 131.000 C 102.236 129.803,102.234 129.803,103.016 130.883 M291.843 130.569 C 291.964 130.882,292.322 131.238,292.640 131.360 C 293.104 131.538,293.135 131.426,292.795 130.791 C 292.313 129.890,291.511 129.703,291.843 130.569 M114.511 130.900 C 113.729 131.911,113.463 132.532,113.936 132.240 C 114.410 131.947,115.357 130.400,115.063 130.400 C 114.972 130.400,114.724 130.625,114.511 130.900 M287.786 132.546 C 288.396 133.346,288.981 134.000,289.087 134.000 C 289.454 134.000,287.638 131.413,287.159 131.253 C 286.894 131.165,287.176 131.747,287.786 132.546 M295.343 135.333 C 295.579 136.005,295.372 136.055,292.850 135.933 C 290.772 135.832,290.147 135.922,290.293 136.300 C 290.538 136.937,295.834 136.992,296.224 136.362 C 296.373 136.121,296.178 135.626,295.791 135.262 C 295.133 134.644,295.103 134.649,295.343 135.333 M107.700 137.091 C 108.525 137.178,109.875 137.178,110.700 137.091 C 111.525 137.005,110.850 136.934,109.200 136.934 C 107.550 136.934,106.875 137.005,107.700 137.091 M110.667 154.667 C 110.520 154.813,110.400 161.293,110.400 169.067 L 110.400 183.200 112.800 183.200 L 115.200 183.200 115.200 173.200 C 115.200 165.470,115.313 163.199,115.700 163.194 C 116.064 163.189,116.075 163.108,115.740 162.894 C 115.488 162.732,115.197 162.150,115.095 161.600 C 114.993 161.050,114.884 165.595,114.854 171.700 L 114.800 182.800 113.000 182.800 L 111.200 182.800 111.198 173.300 C 111.197 168.075,111.080 161.775,110.937 159.300 L 110.678 154.800 113.459 154.800 C 115.089 154.800,116.439 154.999,116.720 155.280 C 117.093 155.653,117.200 155.609,117.200 155.080 C 117.200 154.381,111.324 154.009,110.667 154.667 M132.643 155.033 C 132.509 155.381,132.411 155.876,132.425 156.133 C 132.439 156.390,132.613 156.195,132.812 155.700 C 133.136 154.895,133.451 154.800,135.787 154.800 L 138.400 154.800 138.400 168.800 L 138.400 182.800 136.376 182.800 L 134.353 182.800 134.476 171.800 C 134.544 165.749,134.485 160.799,134.345 160.800 C 133.864 160.800,133.801 163.026,134.000 173.000 L 134.200 183.000 136.400 183.000 L 138.600 183.000 138.705 168.700 L 138.810 154.400 135.848 154.400 C 133.516 154.400,132.834 154.535,132.643 155.033 M131.267 158.275 C 130.680 159.371,130.671 160.000,131.243 160.000 C 131.486 160.000,131.586 159.742,131.465 159.426 C 131.344 159.110,131.442 158.786,131.682 158.706 C 131.923 158.626,132.033 158.299,131.927 157.981 C 131.782 157.545,131.619 157.617,131.267 158.275 M120.000 165.000 C 120.000 165.330,120.180 165.600,120.400 165.600 C 120.620 165.600,120.800 165.330,120.800 165.000 C 120.800 164.670,120.620 164.400,120.400 164.400 C 120.180 164.400,120.000 164.670,120.000 165.000 M131.452 168.500 C 131.041 170.033,131.179 170.250,131.802 169.054 C 132.499 167.719,132.519 167.600,132.047 167.600 C 131.852 167.600,131.585 168.005,131.452 168.500 M127.043 169.833 C 126.721 170.672,126.735 170.800,127.153 170.800 C 127.348 170.800,127.601 170.440,127.716 170.000 C 127.963 169.055,127.395 168.914,127.043 169.833 M144.893 182.500 L 144.986 193.000 145.100 182.700 L 145.214 172.400 147.200 172.400 L 149.186 172.400 149.300 182.100 L 149.415 191.800 149.507 181.900 L 149.600 172.000 147.200 172.000 L 144.800 172.000 144.893 182.500 M164.307 172.290 C 165.026 172.379,166.106 172.377,166.707 172.286 C 167.308 172.195,166.720 172.122,165.400 172.124 C 164.080 172.126,163.588 172.201,164.307 172.290 M124.000 176.324 C 124.000 176.539,124.285 176.824,124.633 176.957 C 125.023 177.107,125.206 177.018,125.108 176.725 C 124.909 176.127,124.000 175.798,124.000 176.324 M128.533 177.429 C 128.281 177.963,128.226 178.400,128.411 178.400 C 128.758 178.400,129.381 176.847,129.132 176.599 C 129.055 176.522,128.785 176.895,128.533 177.429 M182.200 179.200 C 182.516 179.711,185.610 179.711,186.400 179.200 C 186.822 178.927,186.253 178.810,184.476 178.806 C 182.894 178.802,182.045 178.949,182.200 179.200 M180.400 179.600 C 180.400 179.820,180.670 180.000,181.000 180.000 C 181.330 180.000,181.600 179.820,181.600 179.600 C 181.600 179.380,181.330 179.200,181.000 179.200 C 180.670 179.200,180.400 179.380,180.400 179.600 M187.200 179.600 C 187.200 179.820,187.571 180.000,188.024 180.000 C 188.477 180.000,188.736 179.820,188.600 179.600 C 188.464 179.380,188.093 179.200,187.776 179.200 C 187.459 179.200,187.200 179.380,187.200 179.600 M176.025 182.008 C 175.269 182.654,174.774 183.307,174.925 183.458 C 175.076 183.610,175.245 183.657,175.300 183.565 C 175.355 183.472,175.929 182.812,176.575 182.098 C 178.025 180.496,177.831 180.464,176.025 182.008 M192.373 182.144 C 193.128 182.938,193.832 183.502,193.937 183.396 C 194.201 183.133,192.785 181.616,191.804 181.113 C 191.309 180.858,191.527 181.254,192.373 182.144 M124.400 182.800 L 122.200 183.070 124.500 183.135 C 125.810 183.172,126.800 183.028,126.800 182.800 C 126.800 182.580,126.755 182.429,126.700 182.465 C 126.645 182.501,125.610 182.652,124.400 182.800 M182.200 182.999 C 183.109 183.307,188.148 183.482,187.400 183.180 C 186.960 183.002,185.520 182.858,184.200 182.860 C 182.880 182.862,181.980 182.924,182.200 182.999 M188.400 183.902 C 188.400 184.122,188.670 184.526,189.000 184.800 C 189.335 185.078,189.600 185.121,189.600 184.898 C 189.600 184.678,189.330 184.274,189.000 184.000 C 188.665 183.722,188.400 183.679,188.400 183.902 M194.860 187.053 C 194.825 187.551,194.425 188.031,193.900 188.204 L 193.000 188.502 193.934 188.683 C 195.133 188.916,195.298 188.724,195.090 187.337 C 194.972 186.550,194.901 186.463,194.860 187.053 M202.400 201.576 C 202.400 209.483,202.535 216.036,202.700 216.139 C 202.865 216.241,202.948 209.951,202.885 202.162 L 202.771 188.000 212.785 188.000 L 222.800 188.000 222.800 189.600 L 222.800 191.200 214.800 191.200 L 206.800 191.200 206.884 195.500 L 206.969 199.800 207.098 195.700 L 207.228 191.600 215.214 191.600 L 223.200 191.600 223.200 189.400 L 223.200 187.200 212.800 187.200 L 202.400 187.200 202.400 201.576 M179.820 189.572 C 180.029 189.776,180.740 190.055,181.400 190.191 C 182.596 190.439,182.595 190.437,181.254 189.820 C 179.719 189.113,179.272 189.035,179.820 189.572 M162.800 191.400 C 162.800 191.996,162.972 192.341,163.200 192.200 C 163.420 192.064,163.600 191.704,163.600 191.400 C 163.600 191.096,163.420 190.736,163.200 190.600 C 162.972 190.459,162.800 190.804,162.800 191.400 M185.600 191.600 C 185.600 191.820,185.870 192.000,186.200 192.000 C 186.530 192.000,186.800 191.820,186.800 191.600 C 186.800 191.380,186.530 191.200,186.200 191.200 C 185.870 191.200,185.600 191.380,185.600 191.600 M188.200 192.400 C 188.640 192.589,189.270 192.744,189.600 192.744 C 189.978 192.744,189.904 192.617,189.400 192.400 C 188.960 192.211,188.330 192.056,188.000 192.056 C 187.622 192.056,187.696 192.183,188.200 192.400 M176.783 192.980 C 177.290 193.590,179.929 194.604,180.229 194.304 C 180.326 194.207,179.684 193.912,178.803 193.648 C 177.921 193.384,177.200 192.995,177.200 192.784 C 177.200 192.573,176.998 192.400,176.751 192.400 C 176.434 192.400,176.443 192.570,176.783 192.980 M192.587 193.988 C 193.240 194.418,194.107 195.182,194.514 195.685 C 195.220 196.559,195.235 196.561,194.829 195.731 C 194.350 194.749,192.521 193.199,191.846 193.203 C 191.601 193.204,191.934 193.557,192.587 193.988 M146.000 196.417 C 146.000 197.190,150.181 200.800,151.077 200.800 C 152.072 200.800,151.595 200.159,150.234 199.667 C 149.483 199.395,148.223 198.459,147.434 197.585 C 146.645 196.712,146.000 196.186,146.000 196.417 M151.820 196.372 C 152.029 196.576,152.740 196.855,153.400 196.991 C 154.596 197.239,154.595 197.237,153.254 196.620 C 151.719 195.913,151.272 195.835,151.820 196.372 M186.800 196.400 C 186.800 196.620,187.070 196.800,187.400 196.800 C 187.730 196.800,188.000 196.620,188.000 196.400 C 188.000 196.180,187.730 196.000,187.400 196.000 C 187.070 196.000,186.800 196.180,186.800 196.400 M188.403 196.713 C 188.404 196.871,188.989 197.356,189.703 197.790 C 191.450 198.854,191.757 198.977,191.457 198.492 C 191.112 197.934,188.399 196.354,188.403 196.713 M248.573 207.200 C 248.573 212.590,248.630 214.795,248.699 212.100 C 248.768 209.405,248.768 204.995,248.699 202.300 C 248.630 199.605,248.573 201.810,248.573 207.200 M252.406 207.300 C 252.410 212.872,252.577 217.255,252.800 217.600 C 253.056 217.996,253.190 214.698,253.194 207.900 C 253.198 201.296,253.056 197.600,252.800 197.600 C 252.544 197.600,252.402 201.096,252.406 207.300 M176.938 198.987 C 177.192 199.530,177.462 199.794,177.538 199.574 C 177.734 199.005,177.295 198.000,176.850 198.000 C 176.641 198.000,176.679 198.435,176.938 198.987 M195.600 200.224 C 195.600 201.604,195.752 202.353,196.000 202.200 C 196.220 202.064,196.400 201.063,196.400 199.976 C 196.400 198.889,196.220 198.000,196.000 198.000 C 195.780 198.000,195.600 199.001,195.600 200.224 M191.200 200.400 C 191.200 201.060,191.380 201.600,191.600 201.600 C 191.820 201.600,192.000 201.060,192.000 200.400 C 192.000 199.740,191.820 199.200,191.600 199.200 C 191.380 199.200,191.200 199.740,191.200 200.400 M152.200 200.800 C 152.064 201.020,152.334 201.200,152.800 201.200 C 153.266 201.200,153.536 201.020,153.400 200.800 C 153.264 200.580,152.994 200.400,152.800 200.400 C 152.606 200.400,152.336 200.580,152.200 200.800 M159.000 200.800 C 158.859 201.028,159.204 201.200,159.800 201.200 C 160.396 201.200,160.741 201.028,160.600 200.800 C 160.464 200.580,160.104 200.400,159.800 200.400 C 159.496 200.400,159.136 200.580,159.000 200.800 M155.500 201.482 C 155.995 201.578,156.805 201.578,157.300 201.482 C 157.795 201.387,157.390 201.309,156.400 201.309 C 155.410 201.309,155.005 201.387,155.500 201.482 M178.786 202.681 C 179.596 203.790,180.759 204.650,180.988 204.309 C 181.028 204.249,180.339 203.570,179.456 202.800 L 177.850 201.400 178.786 202.681 M206.867 207.700 C 206.830 210.285,206.935 212.400,207.100 212.401 C 207.265 212.401,207.352 210.916,207.292 209.101 C 207.106 203.386,206.937 202.830,206.867 207.700 M194.293 204.750 C 193.639 205.858,190.098 208.000,188.921 208.000 C 188.635 208.000,188.400 208.180,188.400 208.400 C 188.400 208.871,188.940 208.927,189.367 208.500 C 189.532 208.335,189.787 208.192,189.933 208.182 C 191.423 208.081,195.425 204.875,195.138 204.014 C 195.057 203.770,194.676 204.101,194.293 204.750 M184.100 205.087 C 184.705 205.178,185.695 205.178,186.300 205.087 C 186.905 204.995,186.410 204.920,185.200 204.920 C 183.990 204.920,183.495 204.995,184.100 205.087 M176.800 206.567 C 176.800 206.884,179.710 208.424,179.917 208.216 C 180.036 208.097,180.058 207.950,179.967 207.888 C 179.456 207.545,176.800 206.437,176.800 206.567 M180.400 208.400 C 180.400 208.620,180.670 208.800,181.000 208.800 C 181.330 208.800,181.600 208.620,181.600 208.400 C 181.600 208.180,181.330 208.000,181.000 208.000 C 180.670 208.000,180.400 208.180,180.400 208.400 M183.200 208.800 C 182.776 209.074,183.305 209.188,185.000 209.188 C 186.695 209.188,187.224 209.074,186.800 208.800 C 186.470 208.587,185.660 208.412,185.000 208.412 C 184.340 208.412,183.530 208.587,183.200 208.800 M258.495 224.700 L 258.600 239.000 260.800 239.000 L 263.000 239.000 263.107 229.100 C 263.173 222.957,263.363 219.200,263.607 219.200 C 263.823 219.200,264.000 219.009,264.000 218.776 C 264.000 218.543,263.801 218.476,263.557 218.626 C 263.269 218.805,263.196 218.639,263.348 218.150 C 263.477 217.738,263.409 217.130,263.197 216.800 C 262.946 216.408,262.810 220.122,262.806 227.522 L 262.800 238.844 260.900 238.722 L 259.000 238.600 259.000 224.500 C 259.000 216.745,258.863 210.400,258.695 210.400 C 258.527 210.400,258.437 216.835,258.495 224.700 M286.495 224.479 L 286.400 238.758 284.300 238.905 L 282.200 239.052 284.313 239.126 C 287.028 239.221,286.829 240.468,286.700 224.198 L 286.589 210.200 286.495 224.479 M279.200 214.200 C 279.200 214.530,279.380 214.800,279.600 214.800 C 279.820 214.800,280.000 214.530,280.000 214.200 C 280.000 213.870,279.820 213.600,279.600 213.600 C 279.380 213.600,279.200 213.870,279.200 214.200 M266.056 214.400 C 266.056 214.730,266.211 215.360,266.400 215.800 C 266.617 216.304,266.744 216.378,266.744 216.000 C 266.744 215.670,266.589 215.040,266.400 214.600 C 266.183 214.096,266.056 214.022,266.056 214.400 M247.043 219.833 C 246.893 220.223,246.982 220.406,247.275 220.308 C 247.873 220.109,248.202 219.200,247.676 219.200 C 247.461 219.200,247.176 219.485,247.043 219.833 M240.307 222.690 C 241.026 222.779,242.106 222.777,242.707 222.686 C 243.308 222.595,242.720 222.522,241.400 222.524 C 240.080 222.526,239.588 222.601,240.307 222.690 M250.129 223.300 C 249.227 224.302,248.660 225.200,248.929 225.200 C 249.026 225.200,249.586 224.570,250.173 223.800 C 251.377 222.221,251.353 221.941,250.129 223.300 M240.307 226.690 C 241.026 226.779,242.106 226.777,242.707 226.686 C 243.308 226.595,242.720 226.522,241.400 226.524 C 240.080 226.526,239.588 226.601,240.307 226.690 M272.000 232.400 C 272.000 232.620,272.191 232.800,272.424 232.800 C 272.657 232.800,272.720 233.025,272.565 233.300 C 272.349 233.683,272.400 233.691,272.786 233.335 C 273.064 233.079,273.169 232.674,273.022 232.435 C 272.684 231.889,272.000 231.866,272.000 232.400 M274.678 238.025 C 274.480 238.781,274.221 238.864,272.464 238.740 C 271.370 238.663,270.559 238.735,270.661 238.900 C 271.128 239.653,274.742 239.213,275.010 238.370 C 275.154 237.913,275.189 237.456,275.087 237.354 C 274.985 237.252,274.801 237.554,274.678 238.025 M100.243 259.433 C 99.850 260.457,99.962 260.605,100.536 259.819 C 100.975 259.220,101.450 259.122,103.136 259.284 C 104.271 259.393,105.200 259.329,105.200 259.141 C 105.200 258.471,100.506 258.747,100.243 259.433 M280.400 259.100 C 280.400 259.265,281.750 259.400,283.400 259.400 C 285.050 259.400,286.400 259.265,286.400 259.100 C 286.400 258.935,285.050 258.800,283.400 258.800 C 281.750 258.800,280.400 258.935,280.400 259.100 M302.267 259.067 C 302.120 259.213,302.003 259.528,302.006 259.767 C 302.009 260.005,302.168 259.953,302.359 259.652 C 302.616 259.247,303.437 259.146,305.522 259.264 C 307.071 259.351,308.251 259.283,308.145 259.111 C 307.911 258.732,302.641 258.692,302.267 259.067 M102.261 264.487 C 101.961 265.636,102.117 265.745,102.707 264.800 C 102.969 264.381,103.028 263.941,102.837 263.823 C 102.647 263.705,102.388 264.004,102.261 264.487 M100.934 268.229 C 100.682 268.763,100.619 269.288,100.795 269.397 C 100.971 269.506,101.233 269.124,101.377 268.550 C 101.722 267.173,101.506 267.016,100.934 268.229 M98.643 274.233 C 98.003 275.900,98.228 276.000,102.600 276.000 C 106.336 276.000,106.799 275.923,106.794 275.300 C 106.790 274.859,106.679 274.767,106.494 275.050 C 106.312 275.329,104.782 275.503,102.467 275.507 L 98.735 275.515 98.975 274.557 C 99.245 273.483,99.016 273.260,98.643 274.233 M102.192 306.200 L 102.200 320.600 104.300 320.721 C 105.579 320.795,106.400 320.677,106.400 320.421 C 106.400 320.183,105.534 320.000,104.405 320.000 L 102.410 320.000 102.297 305.900 L 102.184 291.800 102.192 306.200 M280.694 296.900 C 280.558 297.253,280.707 297.757,281.024 298.020 C 281.649 298.538,281.715 298.237,281.242 297.029 C 280.981 296.365,280.906 296.347,280.694 296.900 M125.600 298.800 C 125.490 299.350,125.490 304.480,125.600 310.200 L 125.800 320.600 127.900 320.721 C 129.179 320.795,130.000 320.677,130.000 320.421 C 130.000 320.183,129.135 320.000,128.006 320.000 L 126.013 320.000 125.906 308.900 C 125.848 302.795,125.710 298.250,125.600 298.800 M279.600 299.967 C 279.600 300.169,279.486 300.664,279.346 301.067 C 279.123 301.711,279.170 301.703,279.733 301.000 C 280.476 300.073,280.567 299.600,280.000 299.600 C 279.780 299.600,279.600 299.765,279.600 299.967 M283.213 303.900 C 283.220 304.065,283.514 304.560,283.867 305.000 C 284.430 305.703,284.477 305.711,284.254 305.067 C 284.114 304.664,284.000 304.169,284.000 303.967 C 284.000 303.765,283.820 303.600,283.600 303.600 C 283.380 303.600,283.206 303.735,283.213 303.900 M143.111 313.093 C 144.051 313.178,145.491 313.177,146.311 313.091 C 147.130 313.005,146.360 312.936,144.600 312.937 C 142.840 312.939,142.170 313.009,143.111 313.093 M248.300 315.493 C 249.235 315.577,250.765 315.577,251.700 315.493 C 252.635 315.409,251.870 315.340,250.000 315.340 C 248.130 315.340,247.365 315.409,248.300 315.493 M255.000 315.600 C 255.136 315.820,256.002 315.997,256.924 315.994 C 258.153 315.989,258.440 315.884,258.000 315.600 C 257.198 315.082,254.680 315.082,255.000 315.600 M244.992 329.800 L 245.000 344.200 251.094 344.324 C 254.778 344.398,257.466 344.284,257.894 344.036 C 258.398 343.742,256.688 343.621,251.905 343.612 L 245.210 343.600 245.097 329.500 L 244.984 315.400 244.992 329.800 M143.800 316.400 C 143.659 316.628,144.004 316.800,144.600 316.800 C 145.196 316.800,145.541 316.628,145.400 316.400 C 145.264 316.180,144.904 316.000,144.600 316.000 C 144.296 316.000,143.936 316.180,143.800 316.400 M264.200 318.168 C 264.640 318.529,265.337 319.223,265.749 319.712 L 266.498 320.600 265.920 319.629 C 265.602 319.095,264.905 318.401,264.371 318.086 C 263.445 317.539,263.437 317.543,264.200 318.168 M118.000 319.533 C 118.000 319.827,117.257 320.000,116.000 320.000 C 114.900 320.000,114.000 320.180,114.000 320.400 C 114.000 321.121,117.883 320.882,118.167 320.143 C 118.305 319.781,118.325 319.391,118.209 319.276 C 118.094 319.161,118.000 319.277,118.000 319.533 M249.200 329.800 L 249.200 340.400 253.300 340.316 L 257.400 340.233 253.500 340.102 L 249.600 339.971 249.600 329.799 L 249.600 319.627 253.900 319.498 L 258.200 319.370 253.700 319.285 L 249.200 319.200 249.200 329.800 M268.032 319.900 C 268.002 320.737,268.168 320.800,270.400 320.800 C 271.733 320.800,272.800 320.622,272.800 320.400 C 272.800 320.180,271.825 320.000,270.633 320.000 C 269.274 320.000,268.391 319.814,268.265 319.500 C 268.154 319.225,268.049 319.405,268.032 319.900 M258.400 320.000 C 258.400 320.220,258.670 320.400,259.000 320.400 C 259.330 320.400,259.600 320.220,259.600 320.000 C 259.600 319.780,259.330 319.600,259.000 319.600 C 258.670 319.600,258.400 319.780,258.400 320.000 M292.088 319.919 C 290.629 319.989,289.675 320.198,289.812 320.419 C 290.135 320.942,294.290 320.902,294.616 320.373 C 294.976 319.791,294.937 319.784,292.088 319.919 M150.866 321.600 C 150.997 322.002,151.646 322.216,152.831 322.250 C 154.252 322.290,154.325 322.264,153.202 322.117 C 152.432 322.017,151.548 321.724,151.237 321.467 C 150.787 321.097,150.711 321.124,150.866 321.600 M165.100 322.699 C 168.235 322.767,173.365 322.767,176.500 322.699 C 179.635 322.632,177.070 322.576,170.800 322.576 C 164.530 322.576,161.965 322.632,165.100 322.699 M158.901 324.600 C 158.905 325.480,158.987 325.793,159.083 325.295 C 159.179 324.798,159.175 324.078,159.075 323.695 C 158.975 323.313,158.896 323.720,158.901 324.600 M182.101 324.600 C 182.105 325.480,182.187 325.793,182.283 325.295 C 182.379 324.798,182.375 324.078,182.275 323.695 C 182.175 323.313,182.096 323.720,182.101 324.600 M230.000 323.600 C 230.000 323.820,230.360 324.000,230.800 324.000 C 231.240 324.000,231.600 323.820,231.600 323.600 C 231.600 323.380,231.240 323.200,230.800 323.200 C 230.360 323.200,230.000 323.380,230.000 323.600 M215.780 337.800 C 215.780 345.280,215.834 348.283,215.899 344.474 C 215.965 340.665,215.965 334.545,215.899 330.874 C 215.833 327.203,215.779 330.320,215.780 337.800 M263.200 325.400 C 263.200 325.730,263.380 326.000,263.600 326.000 C 263.820 326.000,264.000 325.730,264.000 325.400 C 264.000 325.070,263.820 324.800,263.600 324.800 C 263.380 324.800,263.200 325.070,263.200 325.400 M268.134 326.227 C 268.002 326.572,268.098 327.058,268.347 327.307 C 268.684 327.644,268.800 327.484,268.800 326.680 C 268.800 325.477,268.501 325.273,268.134 326.227 M163.794 326.693 L 168.388 326.825 168.503 338.913 L 168.617 351.000 168.609 338.800 L 168.600 326.600 163.899 326.580 L 159.199 326.560 163.794 326.693 M172.711 338.800 C 172.650 345.620,172.735 351.200,172.900 351.200 C 173.065 351.200,173.200 345.716,173.200 339.013 L 173.200 326.826 177.700 326.699 L 182.200 326.571 177.511 326.486 L 172.822 326.400 172.711 338.800 M207.320 328.400 C 207.320 329.610,207.395 330.105,207.487 329.500 C 207.578 328.895,207.578 327.905,207.487 327.300 C 207.395 326.695,207.320 327.190,207.320 328.400 M264.134 329.600 C 264.134 331.250,264.205 331.925,264.291 331.100 C 264.378 330.275,264.378 328.925,264.291 328.100 C 264.205 327.275,264.134 327.950,264.134 329.600 M230.000 327.428 C 230.703 327.704,231.715 328.037,232.000 328.086 C 232.110 328.105,232.419 328.408,232.687 328.760 C 232.955 329.112,233.180 329.197,233.187 328.949 C 233.207 328.239,232.244 327.623,230.762 327.398 C 230.013 327.285,229.670 327.298,230.000 327.428 M233.693 331.600 C 233.693 332.370,233.775 332.685,233.876 332.300 C 233.976 331.915,233.976 331.285,233.876 330.900 C 233.775 330.515,233.693 330.830,233.693 331.600 M268.267 331.467 C 267.852 331.882,267.953 333.200,268.400 333.200 C 268.620 333.200,268.800 332.750,268.800 332.200 C 268.800 331.153,268.708 331.026,268.267 331.467 M133.346 332.596 C 133.211 332.947,133.213 333.347,133.351 333.484 C 133.488 333.621,133.600 333.433,133.600 333.067 C 133.600 332.070,137.453 332.101,137.748 333.100 C 137.908 333.645,137.936 333.623,137.873 333.000 C 137.764 331.921,133.743 331.562,133.346 332.596 M156.000 333.800 C 156.000 334.570,156.180 335.200,156.400 335.200 C 156.620 335.200,156.800 334.570,156.800 333.800 C 156.800 333.030,156.620 332.400,156.400 332.400 C 156.180 332.400,156.000 333.030,156.000 333.800 M232.662 334.331 C 231.933 335.137,231.772 335.788,232.398 335.401 C 232.815 335.143,233.739 333.600,233.476 333.600 C 233.392 333.600,233.026 333.929,232.662 334.331 M230.400 335.600 C 230.400 335.820,230.670 336.000,231.000 336.000 C 231.330 336.000,231.600 335.820,231.600 335.600 C 231.600 335.380,231.330 335.200,231.000 335.200 C 230.670 335.200,230.400 335.380,230.400 335.600 M139.021 336.434 C 139.295 336.877,141.616 338.118,141.809 337.924 C 141.884 337.850,141.235 337.400,140.368 336.925 C 139.500 336.450,138.894 336.229,139.021 336.434 M222.300 336.296 C 223.675 336.374,225.925 336.374,227.300 336.296 C 228.675 336.218,227.550 336.154,224.800 336.154 C 222.050 336.154,220.925 336.218,222.300 336.296 M135.942 339.138 C 136.681 339.832,137.383 340.400,137.504 340.400 C 137.895 340.400,136.234 338.739,135.404 338.301 C 134.962 338.067,135.204 338.444,135.942 339.138 M195.321 338.298 C 197.477 338.371,200.897 338.370,202.921 338.298 C 204.944 338.225,203.180 338.166,199.000 338.167 C 194.820 338.167,193.164 338.226,195.321 338.298 M206.501 340.200 C 206.505 341.080,206.587 341.393,206.683 340.895 C 206.779 340.398,206.775 339.678,206.675 339.295 C 206.575 338.913,206.496 339.320,206.501 340.200 M258.700 339.076 C 257.845 339.299,257.769 340.000,258.600 340.000 C 258.930 340.000,259.200 339.809,259.200 339.576 C 259.200 339.343,259.380 339.264,259.600 339.400 C 259.820 339.536,260.000 339.457,260.000 339.224 C 260.000 338.784,259.872 338.770,258.700 339.076 M220.600 339.838 C 222.432 340.134,228.000 340.183,228.000 339.903 C 228.000 339.736,226.155 339.625,223.900 339.654 C 221.645 339.684,220.160 339.767,220.600 339.838 M195.321 342.298 C 197.477 342.371,200.897 342.370,202.921 342.298 C 204.944 342.225,203.180 342.166,199.000 342.167 C 194.820 342.167,193.164 342.226,195.321 342.298 M239.435 350.937 C 239.691 351.613,239.501 351.662,237.089 351.537 C 235.024 351.429,234.554 351.506,234.881 351.900 C 235.400 352.522,239.846 352.574,240.224 351.962 C 240.373 351.721,240.194 351.226,239.826 350.862 C 239.203 350.246,239.176 350.251,239.435 350.937 M207.600 352.776 L 207.600 354.800 197.700 354.892 L 187.800 354.985 197.200 355.105 C 208.712 355.253,208.400 355.311,208.400 353.016 C 208.400 352.043,208.220 351.136,208.000 351.000 C 207.753 350.848,207.600 351.529,207.600 352.776 M218.100 351.521 C 216.945 351.587,216.000 351.812,216.000 352.021 C 216.000 352.545,219.890 352.501,220.216 351.973 C 220.573 351.397,220.505 351.382,218.100 351.521 " stroke="none" fill="#b3b3b3" fill-rule="evenodd"></path><path id="path1" d="M48.267 53.867 C 48.120 54.013,48.000 121.693,48.000 204.267 L 48.000 354.400 49.400 354.400 L 50.800 354.400 50.804 308.300 C 50.819 104.461,50.775 54.283,50.578 53.965 C 50.318 53.543,48.661 53.473,48.267 53.867 M170.400 67.381 L 170.400 81.162 176.900 81.281 C 180.475 81.346,183.571 81.265,183.780 81.100 C 183.989 80.935,184.436 80.800,184.774 80.800 C 186.954 80.800,190.597 77.731,191.392 75.225 C 191.536 74.771,191.816 74.400,192.014 74.400 C 192.213 74.400,192.271 74.130,192.145 73.800 C 192.018 73.470,192.109 73.200,192.347 73.200 C 192.615 73.200,192.688 72.742,192.540 72.000 C 192.408 71.340,192.458 70.800,192.650 70.800 C 192.843 70.800,193.000 69.180,193.000 67.200 C 193.000 65.220,192.844 63.600,192.653 63.600 C 192.463 63.600,192.393 63.150,192.498 62.600 C 192.603 62.050,192.579 61.595,192.445 61.589 C 192.310 61.583,191.750 60.588,191.200 59.377 C 190.271 57.333,188.029 55.200,186.809 55.200 C 186.584 55.200,186.400 55.026,186.400 54.813 C 186.400 54.599,186.130 54.529,185.800 54.655 C 185.468 54.783,185.200 54.667,185.200 54.396 C 185.200 54.104,184.878 53.991,184.400 54.116 C 183.961 54.231,183.500 54.162,183.377 53.962 C 183.254 53.763,180.283 53.600,176.776 53.600 L 170.400 53.600 170.400 67.381 M201.867 53.867 C 201.720 54.013,201.600 60.223,201.600 67.667 L 201.600 81.200 211.824 81.200 L 222.048 81.200 221.924 79.700 L 221.800 78.200 213.900 78.092 L 206.000 77.983 206.000 73.601 L 206.000 69.218 213.100 69.109 L 220.200 69.000 220.323 67.300 L 220.446 65.600 213.223 65.600 L 206.000 65.600 206.000 61.400 L 206.000 57.200 213.600 57.200 L 221.200 57.200 221.200 55.400 L 221.200 53.600 211.667 53.600 C 206.423 53.600,202.013 53.720,201.867 53.867 M347.467 53.867 C 347.320 54.013,347.200 121.705,347.200 204.292 L 347.200 354.451 348.500 354.325 L 349.800 354.200 349.799 304.900 C 349.799 277.785,349.754 210.150,349.699 154.600 L 349.600 53.600 348.667 53.600 C 348.153 53.600,347.613 53.720,347.467 53.867 M183.614 57.197 C 185.371 57.685,187.775 60.139,188.318 62.000 C 188.544 62.770,188.924 64.043,189.164 64.828 C 189.699 66.580,189.718 68.154,189.226 69.772 C 189.020 70.447,188.655 71.757,188.415 72.682 C 187.832 74.928,183.600 79.415,183.600 77.787 C 183.600 77.658,183.375 77.698,183.100 77.876 C 182.825 78.054,180.576 78.200,178.101 78.200 L 173.603 78.200 173.601 67.500 L 173.600 56.800 177.900 56.802 C 180.265 56.803,182.836 56.981,183.614 57.197 M230.400 72.179 L 230.400 85.958 239.500 85.879 L 248.600 85.800 248.724 84.310 L 248.847 82.819 241.924 82.710 L 235.000 82.600 234.894 70.500 L 234.788 58.400 232.594 58.400 L 230.400 58.400 230.400 72.179 M142.264 67.293 C 142.120 71.092,142.002 77.305,142.001 81.100 L 142.000 88.000 152.200 88.000 L 162.400 88.000 162.400 86.400 L 162.400 84.800 154.200 84.800 L 146.000 84.800 145.969 83.500 C 145.939 82.279,145.951 76.155,145.985 75.500 C 145.993 75.335,149.420 75.200,153.600 75.200 L 161.200 75.200 161.200 73.609 L 161.200 72.017 153.594 71.909 L 145.987 71.800 145.790 67.708 L 145.594 63.617 153.697 63.508 L 161.800 63.400 161.800 62.000 L 161.800 60.600 152.163 60.493 L 142.526 60.386 142.264 67.293 M253.867 77.467 C 253.720 77.613,253.600 83.823,253.600 91.267 L 253.600 104.800 255.400 104.800 L 257.200 104.800 257.200 91.000 L 257.200 77.200 255.667 77.200 C 254.823 77.200,254.013 77.320,253.867 77.467 M272.800 88.535 C 272.800 101.780,272.867 101.530,269.191 102.001 C 266.737 102.316,264.493 100.796,265.010 99.169 C 265.147 98.738,265.066 98.400,264.827 98.400 C 264.592 98.400,264.400 97.950,264.400 97.400 C 264.400 96.481,264.253 96.400,262.600 96.400 C 260.585 96.400,260.625 96.304,261.194 99.780 C 261.423 101.176,261.839 102.302,262.200 102.504 C 262.539 102.694,262.734 102.983,262.633 103.146 C 262.532 103.309,263.247 103.793,264.221 104.221 C 265.195 104.650,265.994 105.090,265.996 105.200 C 265.998 105.310,267.125 105.368,268.500 105.329 C 271.982 105.230,274.628 104.003,275.520 102.073 C 275.894 101.263,276.316 100.546,276.458 100.481 C 276.599 100.415,276.620 99.998,276.504 99.555 C 276.388 99.111,276.502 98.354,276.757 97.874 C 277.081 97.262,277.187 94.058,277.110 87.200 L 277.000 77.400 274.900 77.279 L 272.800 77.158 272.800 88.535 M114.800 83.956 C 114.800 85.263,114.966 85.905,115.300 85.893 C 115.575 85.882,117.465 85.902,119.500 85.937 L 123.200 86.000 123.200 98.200 L 123.200 110.400 125.400 110.400 L 127.600 110.400 127.600 98.200 L 127.600 86.000 132.000 86.000 L 136.400 86.000 136.400 84.000 L 136.400 82.000 125.600 82.000 L 114.800 82.000 114.800 83.956 M107.600 107.604 C 107.600 107.822,106.995 108.000,106.256 108.000 C 104.699 108.000,100.000 110.288,100.000 111.047 C 100.000 111.329,99.685 111.737,99.300 111.952 C 98.915 112.167,98.645 112.446,98.700 112.572 C 98.755 112.697,98.790 112.845,98.777 112.900 C 98.565 113.836,98.690 117.600,98.933 117.600 C 99.117 117.600,99.193 117.821,99.103 118.090 C 98.914 118.658,101.803 121.200,102.638 121.200 C 102.947 121.200,103.200 121.355,103.200 121.545 C 103.200 121.735,105.180 122.398,107.600 123.018 C 110.020 123.638,112.000 124.287,112.000 124.460 C 112.000 124.633,112.257 124.676,112.571 124.556 C 114.751 123.719,116.966 128.666,115.449 130.982 C 113.104 134.561,102.000 133.523,102.000 129.725 C 102.000 129.436,101.808 129.200,101.573 129.200 C 101.331 129.200,101.254 128.860,101.396 128.413 C 101.673 127.540,100.473 127.022,98.741 127.267 C 97.555 127.435,97.257 129.217,98.180 130.626 C 98.531 131.162,98.724 131.600,98.608 131.600 C 98.094 131.600,101.880 134.819,102.883 135.234 C 103.497 135.489,104.000 135.838,104.000 136.011 C 104.000 136.184,104.360 136.231,104.800 136.116 C 105.240 136.001,105.600 136.063,105.600 136.253 C 105.600 136.444,107.130 136.600,108.999 136.600 C 110.869 136.600,112.399 136.465,112.399 136.300 C 112.400 136.135,112.712 136.000,113.094 136.000 C 114.053 136.000,118.000 133.961,118.000 133.466 C 118.000 133.244,118.256 132.779,118.569 132.431 C 119.951 130.897,120.368 128.502,119.613 126.435 C 119.011 124.789,116.400 121.322,116.400 122.169 C 116.400 122.328,116.160 122.217,115.866 121.923 C 115.572 121.630,113.592 120.970,111.466 120.457 C 109.340 119.945,107.600 119.379,107.600 119.200 C 107.600 119.021,107.240 118.969,106.800 119.084 C 106.360 119.199,106.000 119.098,106.000 118.859 C 106.000 118.620,105.730 118.529,105.400 118.655 C 105.060 118.786,104.800 118.665,104.800 118.376 C 104.800 118.096,104.683 117.984,104.540 118.127 C 103.243 119.424,101.867 114.539,103.052 112.847 C 105.848 108.855,115.189 111.059,115.199 115.713 C 115.200 116.537,116.474 117.178,116.709 116.472 C 116.796 116.212,117.302 116.000,117.833 116.000 C 118.941 116.000,119.067 115.286,118.333 113.179 C 117.349 110.357,113.796 108.000,110.526 108.000 C 109.771 108.000,109.240 107.858,109.348 107.685 C 109.455 107.512,109.105 107.334,108.571 107.289 C 108.037 107.245,107.600 107.387,107.600 107.604 M272.800 122.200 L 272.800 136.000 274.600 136.000 L 276.400 136.000 276.400 131.115 L 276.400 126.231 278.680 124.109 L 280.960 121.987 281.874 123.094 C 282.377 123.702,283.371 125.100,284.081 126.200 C 284.792 127.300,285.480 128.290,285.610 128.400 C 285.740 128.510,286.991 130.265,288.390 132.300 L 290.934 136.000 293.316 136.000 C 295.159 136.000,295.611 135.887,295.314 135.500 C 290.868 129.704,289.691 128.042,289.892 127.841 C 290.025 127.709,289.948 127.600,289.721 127.600 C 289.494 127.600,288.789 126.835,288.154 125.900 C 287.519 124.965,286.774 123.962,286.499 123.670 C 286.223 123.379,285.432 122.318,284.741 121.314 L 283.485 119.488 288.948 114.244 C 295.182 108.262,295.102 108.400,292.304 108.400 L 290.208 108.400 283.304 115.296 L 276.400 122.191 276.400 115.296 L 276.400 108.400 274.600 108.400 L 272.800 108.400 272.800 122.200 M111.295 168.900 L 111.400 182.600 113.000 182.600 L 114.600 182.600 114.659 171.474 C 114.724 159.075,114.786 158.688,116.028 162.858 C 116.509 164.476,117.046 165.957,117.221 166.149 C 117.395 166.341,117.442 166.746,117.326 167.049 C 117.210 167.352,117.314 167.600,117.557 167.600 C 117.801 167.600,117.971 167.735,117.935 167.900 C 117.900 168.065,118.081 168.710,118.338 169.334 C 118.595 169.957,118.704 170.632,118.579 170.834 C 118.455 171.035,118.531 171.200,118.748 171.200 C 118.965 171.200,119.443 172.235,119.810 173.500 C 120.176 174.765,120.831 176.583,121.266 177.539 C 121.700 178.495,121.962 179.372,121.847 179.487 C 121.732 179.601,121.914 179.971,122.250 180.307 C 122.587 180.644,122.779 181.238,122.677 181.628 C 122.482 182.373,123.453 182.796,125.007 182.642 C 126.393 182.505,126.710 182.076,127.626 179.096 C 128.116 177.503,128.625 176.110,128.758 176.000 C 128.891 175.890,129.006 175.620,129.012 175.400 C 129.044 174.359,129.702 172.400,130.019 172.400 C 130.215 172.400,130.271 172.130,130.145 171.800 C 130.018 171.470,130.083 171.200,130.288 171.200 C 130.494 171.200,131.084 169.760,131.600 168.000 C 132.116 166.240,132.697 164.800,132.892 164.800 C 133.088 164.800,133.136 164.620,133.000 164.400 C 132.864 164.180,132.954 164.000,133.200 164.000 C 133.446 164.000,133.534 163.816,133.395 163.592 C 133.076 163.076,133.939 160.400,134.425 160.400 C 134.630 160.400,134.833 165.207,134.894 171.500 L 135.000 182.600 136.600 182.600 L 138.200 182.600 138.286 168.900 L 138.371 155.200 135.652 155.200 C 133.766 155.200,132.920 155.353,132.891 155.700 C 132.817 156.580,131.514 160.000,131.253 160.001 C 131.114 160.001,130.979 160.578,130.953 161.283 C 130.928 161.988,130.701 162.633,130.451 162.716 C 130.200 162.800,130.097 163.033,130.221 163.234 C 130.345 163.435,130.273 163.600,130.061 163.600 C 129.849 163.600,129.764 163.940,129.872 164.355 C 129.981 164.770,129.888 165.222,129.667 165.359 C 129.445 165.495,128.875 166.866,128.399 168.404 C 127.923 169.942,127.374 171.200,127.179 171.200 C 126.984 171.200,126.929 171.470,127.055 171.800 C 127.182 172.130,127.131 172.400,126.943 172.400 C 126.754 172.400,126.572 172.890,126.537 173.488 C 126.502 174.086,126.296 174.635,126.079 174.707 C 125.862 174.779,125.777 175.190,125.889 175.619 C 126.006 176.067,125.893 176.400,125.623 176.400 C 125.364 176.400,125.248 176.553,125.364 176.741 C 125.480 176.929,125.337 177.407,125.046 177.804 C 124.473 178.589,123.675 176.849,124.211 175.982 C 124.341 175.772,124.271 175.600,124.055 175.600 C 123.839 175.600,123.453 174.925,123.197 174.100 C 122.940 173.275,122.492 172.060,122.201 171.400 C 121.909 170.740,121.609 169.840,121.535 169.400 C 121.461 168.960,121.300 168.510,121.178 168.400 C 121.056 168.290,120.450 166.580,119.831 164.600 C 119.212 162.620,118.548 160.803,118.356 160.563 C 118.164 160.323,118.125 160.008,118.270 159.863 C 118.415 159.718,118.315 159.600,118.049 159.600 C 117.783 159.600,117.602 159.375,117.647 159.100 C 117.692 158.825,117.518 158.090,117.261 157.466 C 117.004 156.843,116.885 156.187,116.995 156.008 C 117.318 155.486,116.105 155.200,113.562 155.200 L 111.189 155.200 111.295 168.900 M145.525 182.700 C 145.456 188.365,145.533 193.197,145.697 193.437 C 145.860 193.677,145.886 193.980,145.756 194.110 C 145.626 194.241,145.721 194.584,145.967 194.874 C 146.213 195.163,146.820 196.026,147.316 196.790 C 148.451 198.539,150.460 199.909,152.345 200.221 C 153.145 200.354,154.070 200.557,154.400 200.674 C 155.277 200.983,158.001 201.042,158.000 200.752 C 158.000 200.615,158.934 200.379,160.076 200.228 C 162.078 199.962,166.227 196.786,166.383 195.400 C 166.408 195.180,166.692 194.112,167.014 193.027 C 167.455 191.542,167.600 188.753,167.600 181.727 L 167.600 172.400 165.367 172.400 L 163.134 172.400 163.204 182.300 C 163.242 187.745,163.242 192.290,163.204 192.400 C 163.165 192.510,163.090 192.989,163.036 193.464 C 162.774 195.797,157.912 198.549,155.466 197.749 C 154.990 197.594,154.330 197.440,154.000 197.409 C 152.193 197.235,149.545 194.905,149.458 193.413 C 149.426 192.856,149.265 192.400,149.100 192.400 C 148.935 192.400,148.800 187.900,148.800 182.400 L 148.800 172.400 147.225 172.400 L 145.650 172.400 145.525 182.700 M181.000 179.949 C 177.975 180.749,174.800 183.588,174.800 185.491 C 174.800 185.991,174.620 186.400,174.400 186.400 C 174.180 186.400,174.000 186.749,174.000 187.176 C 174.000 187.603,174.180 188.064,174.400 188.200 C 174.620 188.336,174.800 188.815,174.800 189.264 C 174.800 190.482,177.133 192.570,179.400 193.382 C 180.500 193.775,181.967 194.346,182.660 194.649 C 183.354 194.952,184.152 195.200,184.434 195.200 C 189.453 195.200,193.966 199.977,191.386 202.557 C 191.048 202.895,190.823 203.311,190.886 203.482 C 191.062 203.961,186.765 205.574,185.275 205.588 C 182.101 205.617,177.633 203.099,177.490 201.200 C 177.457 200.760,177.288 200.400,177.115 200.400 C 176.942 200.400,176.800 199.931,176.800 199.357 C 176.800 198.517,176.664 198.372,176.100 198.614 C 175.715 198.778,174.905 198.998,174.300 199.102 C 173.224 199.287,172.822 200.119,173.583 200.589 C 173.793 200.719,173.864 201.090,173.740 201.413 C 173.616 201.736,173.694 202.000,173.914 202.000 C 174.134 202.000,174.416 202.409,174.541 202.908 C 175.053 204.947,179.190 207.969,181.500 207.991 C 181.995 207.996,182.400 208.135,182.400 208.300 C 182.400 208.465,183.570 208.600,185.000 208.600 C 186.430 208.600,187.600 208.499,187.600 208.376 C 187.600 208.252,188.471 207.928,189.535 207.655 C 190.972 207.287,191.976 206.646,193.435 205.164 L 195.400 203.169 195.400 200.211 C 195.400 196.098,192.214 193.101,186.898 192.213 C 185.962 192.057,185.297 191.767,185.419 191.569 C 185.541 191.371,185.383 191.308,185.068 191.429 C 181.574 192.770,176.740 187.895,178.659 184.965 C 180.560 182.065,190.727 182.216,190.100 185.134 C 190.045 185.391,190.166 185.600,190.368 185.600 C 190.571 185.600,190.855 186.140,191.000 186.800 C 191.245 187.916,191.389 188.000,193.059 188.000 C 194.739 188.000,194.836 187.942,194.567 187.100 C 194.409 186.605,194.262 185.930,194.240 185.600 C 194.197 184.951,194.137 184.854,192.556 182.882 C 190.493 180.310,184.950 178.903,181.000 179.949 M203.200 201.800 L 203.200 215.600 213.200 215.600 L 223.200 215.600 223.200 214.000 L 223.200 212.400 215.000 212.400 L 206.800 212.400 206.800 207.700 L 206.799 203.000 213.988 203.117 L 221.176 203.235 221.431 202.218 C 221.977 200.042,221.837 200.000,214.013 200.000 L 206.800 200.000 206.800 195.608 L 206.800 191.217 214.700 191.108 L 222.600 191.000 222.724 189.500 L 222.848 188.000 213.024 188.000 L 203.200 188.000 203.200 201.800 M230.900 197.882 L 230.000 198.056 230.000 207.604 C 230.000 213.787,230.147 217.243,230.416 217.410 C 230.645 217.552,230.723 218.012,230.589 218.434 C 230.456 218.855,230.496 219.200,230.679 219.200 C 230.862 219.200,231.333 220.103,231.725 221.207 C 232.351 222.968,234.467 225.055,236.000 225.421 C 236.110 225.448,236.560 225.634,237.000 225.835 C 238.311 226.433,245.769 226.290,246.539 225.651 C 246.902 225.349,247.200 225.226,247.200 225.378 C 247.200 226.004,251.242 221.772,251.455 220.923 C 251.583 220.415,251.842 220.000,252.031 220.000 C 252.220 220.000,252.264 219.712,252.129 219.360 C 251.994 219.007,252.045 218.602,252.242 218.460 C 252.442 218.315,252.550 213.655,252.487 207.900 L 252.374 197.600 250.830 197.600 C 248.766 197.600,248.800 197.429,248.800 207.856 C 248.800 218.337,248.533 219.902,246.452 221.618 C 245.656 222.274,244.779 222.724,244.502 222.618 C 244.226 222.512,244.000 222.599,244.000 222.813 C 244.000 223.330,239.317 223.312,238.996 222.793 C 238.858 222.570,238.592 222.481,238.406 222.596 C 237.848 222.941,235.532 220.736,234.924 219.279 C 234.484 218.226,234.363 215.758,234.385 208.310 C 234.420 197.047,234.469 197.195,230.900 197.882 M259.200 225.023 L 259.200 238.846 260.900 238.723 L 262.600 238.600 262.600 227.300 C 262.600 215.269,262.715 214.534,263.967 218.587 C 264.406 220.010,265.051 221.725,265.399 222.399 C 265.748 223.072,265.934 223.783,265.814 223.978 C 265.693 224.172,265.800 224.400,266.051 224.484 C 266.301 224.567,266.528 225.212,266.553 225.917 C 266.579 226.622,266.746 227.199,266.924 227.199 C 267.102 227.200,267.136 227.380,267.000 227.600 C 266.864 227.820,266.898 228.000,267.076 228.000 C 267.255 228.000,267.744 229.125,268.164 230.500 C 268.585 231.875,269.177 233.410,269.481 233.911 C 269.785 234.413,269.933 234.985,269.810 235.184 C 269.687 235.382,269.773 235.660,270.000 235.800 C 270.227 235.940,270.309 236.223,270.183 236.428 C 270.056 236.632,270.124 236.800,270.333 236.800 C 270.542 236.800,270.826 237.250,270.964 237.800 C 271.170 238.618,271.459 238.800,272.559 238.800 C 274.221 238.800,274.468 238.492,275.606 235.000 C 276.108 233.460,276.687 232.090,276.894 231.955 C 277.100 231.821,277.234 231.592,277.191 231.447 C 277.004 230.807,277.675 228.400,278.042 228.400 C 278.265 228.400,278.331 228.212,278.189 227.982 C 278.047 227.753,278.202 227.151,278.533 226.646 C 278.864 226.141,279.336 224.979,279.583 224.064 C 279.829 223.149,280.159 222.400,280.315 222.399 C 280.472 222.399,280.620 221.840,280.645 221.157 C 280.669 220.474,280.849 219.800,281.045 219.658 C 281.240 219.516,281.450 218.950,281.512 218.400 C 281.573 217.850,281.799 217.340,282.014 217.266 C 282.229 217.192,282.303 216.967,282.179 216.766 C 282.055 216.565,282.098 216.400,282.276 216.400 C 282.454 216.400,282.600 221.395,282.600 227.500 L 282.600 238.600 284.300 238.723 L 286.000 238.846 286.000 225.004 L 286.000 211.162 283.500 211.281 L 281.000 211.400 280.273 213.593 C 279.873 214.799,279.423 215.879,279.273 215.993 C 279.123 216.107,278.962 216.725,278.916 217.367 C 278.869 218.009,278.689 218.639,278.516 218.767 C 278.342 218.895,278.138 219.360,278.062 219.800 C 277.986 220.240,277.785 220.780,277.615 221.000 C 277.445 221.220,276.896 222.660,276.394 224.200 C 275.892 225.740,275.373 227.090,275.241 227.200 C 275.108 227.310,274.994 227.580,274.988 227.800 C 274.957 228.805,274.303 230.800,274.006 230.800 C 273.824 230.800,273.769 231.160,273.884 231.600 C 273.999 232.040,273.913 232.400,273.693 232.400 C 273.473 232.400,273.179 232.805,273.040 233.300 C 272.805 234.138,272.758 234.150,272.360 233.476 C 272.125 233.077,272.032 232.492,272.154 232.176 C 272.275 231.859,272.215 231.600,272.019 231.600 C 271.824 231.600,271.542 231.015,271.393 230.300 C 271.243 229.585,270.895 228.640,270.619 228.200 C 270.342 227.760,269.443 225.330,268.619 222.800 C 267.796 220.270,266.773 217.429,266.345 216.487 C 265.918 215.545,265.667 214.616,265.787 214.421 C 265.907 214.227,265.829 214.008,265.614 213.934 C 265.399 213.860,265.173 213.350,265.112 212.800 C 264.956 211.404,264.547 211.213,261.700 211.206 L 259.200 211.200 259.200 225.023 M100.000 261.200 C 99.763 262.080,99.402 262.800,99.197 262.800 C 98.993 262.800,98.929 263.070,99.055 263.400 C 99.182 263.730,99.076 264.000,98.819 264.000 C 98.563 264.000,98.476 264.200,98.628 264.445 C 98.779 264.689,98.729 265.004,98.517 265.145 C 98.305 265.285,97.536 267.110,96.808 269.200 C 96.080 271.290,95.292 273.360,95.058 273.800 C 94.824 274.240,94.678 274.825,94.734 275.100 C 94.789 275.375,94.637 275.600,94.394 275.600 C 94.151 275.600,94.064 275.780,94.200 276.000 C 94.336 276.220,94.302 276.401,94.124 276.402 C 93.946 276.403,93.267 278.023,92.616 280.002 C 91.964 281.981,91.295 283.600,91.128 283.600 C 90.962 283.600,90.929 283.870,91.055 284.200 C 91.182 284.530,91.076 284.800,90.819 284.800 C 90.563 284.800,90.456 284.968,90.583 285.172 C 90.709 285.377,90.630 285.658,90.407 285.796 C 89.337 286.457,90.049 287.200,91.751 287.200 C 93.815 287.200,94.082 286.931,95.029 283.896 C 95.508 282.364,95.861 281.761,96.086 282.096 C 96.285 282.393,96.319 282.148,96.169 281.500 C 96.008 280.808,96.078 280.400,96.357 280.400 C 96.600 280.400,96.779 280.265,96.753 280.100 C 96.553 278.834,96.821 278.779,102.700 278.889 L 108.600 279.000 109.354 281.400 C 109.768 282.720,110.264 283.860,110.456 283.934 C 110.648 284.008,110.703 284.233,110.579 284.434 C 110.455 284.635,110.564 284.800,110.823 284.800 C 111.082 284.800,111.210 285.120,111.107 285.512 C 110.823 286.599,111.776 287.200,113.783 287.200 C 114.782 287.200,115.600 287.138,115.600 287.063 C 115.600 286.870,114.047 282.330,113.732 281.600 C 113.590 281.270,113.502 280.865,113.536 280.700 C 113.571 280.535,113.409 280.400,113.176 280.400 C 112.943 280.400,112.855 280.235,112.979 280.034 C 113.103 279.833,113.060 279.608,112.883 279.534 C 112.706 279.460,112.049 277.960,111.421 276.200 C 110.794 274.440,110.092 272.640,109.860 272.200 C 109.629 271.760,109.381 271.048,109.309 270.617 C 109.238 270.187,108.981 269.712,108.739 269.562 C 108.496 269.412,108.421 269.089,108.572 268.845 C 108.724 268.600,108.685 268.400,108.487 268.400 C 108.289 268.400,107.909 267.674,107.643 266.786 C 107.377 265.898,106.779 264.323,106.315 263.286 C 105.850 262.249,105.507 261.175,105.553 260.900 C 105.598 260.625,105.437 260.400,105.194 260.400 C 104.951 260.400,104.864 260.220,105.000 260.000 C 105.154 259.750,104.343 259.600,102.839 259.600 L 100.431 259.600 100.000 261.200 M280.800 273.400 L 280.800 287.200 282.400 287.200 L 284.000 287.200 284.000 275.776 C 284.000 265.027,284.294 262.296,285.029 266.214 C 285.172 266.976,285.410 267.600,285.557 267.600 C 285.705 267.600,285.865 268.077,285.913 268.660 C 285.961 269.242,286.179 269.934,286.397 270.196 C 286.615 270.459,286.675 270.792,286.530 270.937 C 286.385 271.082,286.447 271.200,286.668 271.200 C 286.889 271.200,287.677 273.180,288.418 275.600 C 289.159 278.020,289.903 280.000,290.070 280.000 C 290.238 280.000,290.271 280.270,290.145 280.600 C 290.018 280.930,290.133 281.200,290.400 281.200 C 290.667 281.200,290.784 281.464,290.660 281.787 C 290.536 282.110,290.610 282.483,290.824 282.615 C 291.038 282.747,291.109 283.023,290.983 283.228 C 290.856 283.432,290.920 283.600,291.124 283.600 C 291.329 283.600,291.723 284.410,292.000 285.400 C 292.667 287.782,295.713 288.218,296.200 286.000 C 296.345 285.340,296.640 284.800,296.855 284.800 C 297.071 284.800,297.124 284.600,296.972 284.355 C 296.821 284.111,296.877 283.796,297.097 283.655 C 297.317 283.515,297.986 281.825,298.584 279.900 C 299.182 277.975,299.829 276.400,300.023 276.400 C 300.217 276.400,300.271 276.129,300.143 275.797 C 300.016 275.465,300.206 274.745,300.565 274.197 C 300.925 273.649,301.102 273.200,300.960 273.200 C 300.818 273.200,300.930 272.926,301.208 272.590 C 301.486 272.255,301.607 271.874,301.476 271.743 C 301.345 271.612,301.457 271.286,301.725 271.018 C 301.993 270.750,302.546 269.242,302.955 267.666 C 304.105 263.232,304.208 263.998,304.082 276.000 L 303.964 287.200 305.782 287.200 L 307.600 287.200 307.600 273.400 L 307.600 259.600 305.371 259.600 C 303.492 259.600,301.789 260.252,302.012 260.886 C 302.034 260.949,301.930 261.316,301.782 261.702 C 301.634 262.089,301.113 263.665,300.625 265.204 C 300.137 266.744,299.607 267.874,299.448 267.714 C 299.288 267.555,299.276 267.734,299.422 268.112 C 299.586 268.541,299.494 268.800,299.176 268.800 C 298.896 268.800,298.785 268.918,298.930 269.063 C 299.075 269.208,298.989 269.572,298.740 269.873 C 298.490 270.173,298.400 270.533,298.540 270.673 C 298.679 270.812,298.593 271.168,298.348 271.463 C 298.103 271.758,298.059 272.003,298.251 272.006 C 298.443 272.009,298.416 272.144,298.191 272.306 C 297.966 272.468,297.257 274.265,296.616 276.300 C 295.974 278.335,295.309 280.000,295.137 280.000 C 294.966 280.000,294.929 280.270,295.055 280.600 C 295.182 280.930,295.067 281.200,294.800 281.200 C 294.533 281.200,294.418 281.470,294.545 281.800 C 294.671 282.130,294.601 282.400,294.387 282.400 C 294.174 282.400,294.000 282.080,294.000 281.689 C 294.000 281.298,293.720 280.578,293.377 280.088 C 293.034 279.599,292.857 279.031,292.983 278.827 C 293.110 278.623,293.027 278.340,292.800 278.200 C 292.573 278.060,292.491 277.777,292.617 277.572 C 292.744 277.368,292.690 277.200,292.497 277.200 C 292.305 277.200,291.635 275.535,291.010 273.500 C 290.384 271.465,289.723 269.603,289.540 269.363 C 289.357 269.123,289.325 268.808,289.470 268.663 C 289.615 268.518,289.504 268.400,289.224 268.400 C 288.935 268.400,288.814 268.140,288.945 267.800 C 289.071 267.470,289.025 267.200,288.843 267.200 C 288.660 267.200,287.997 265.490,287.369 263.400 L 286.227 259.600 283.514 259.600 L 280.800 259.600 280.800 273.400 M103.607 265.490 C 103.891 266.540,104.312 267.760,104.542 268.200 C 104.772 268.640,105.014 269.321,105.080 269.713 C 105.145 270.106,105.485 270.863,105.834 271.396 C 106.183 271.929,106.362 272.537,106.232 272.748 C 106.102 272.959,106.172 273.192,106.388 273.266 C 106.605 273.340,106.898 273.985,107.041 274.700 L 107.300 276.000 102.705 276.000 C 97.749 276.000,97.500 275.864,98.668 273.800 C 98.917 273.360,99.421 271.965,99.789 270.700 C 100.156 269.435,100.635 268.400,100.852 268.400 C 101.069 268.400,101.145 268.235,101.021 268.034 C 100.896 267.832,101.005 267.157,101.264 266.534 C 101.522 265.910,101.771 265.265,101.816 265.100 C 101.862 264.935,101.945 264.710,102.000 264.600 C 102.090 264.419,102.212 263.995,102.350 263.376 C 102.498 262.714,103.155 263.818,103.607 265.490 M102.800 306.000 L 102.800 320.000 104.600 320.000 L 106.400 320.000 106.400 309.200 C 106.400 301.515,106.529 298.400,106.847 298.400 C 107.096 298.400,107.201 298.753,107.084 299.200 C 106.969 299.640,107.017 300.000,107.190 300.000 C 107.364 300.000,107.995 301.575,108.593 303.500 C 109.191 305.425,109.864 307.225,110.089 307.500 C 110.378 307.854,110.344 308.000,109.973 308.000 C 109.653 308.000,109.751 308.230,110.224 308.587 C 110.651 308.910,110.843 309.180,110.651 309.187 C 110.459 309.194,110.520 309.462,110.785 309.782 C 111.051 310.103,111.153 310.553,111.011 310.782 C 110.869 311.012,110.963 311.200,111.219 311.200 C 111.476 311.200,111.582 311.470,111.455 311.800 C 111.329 312.130,111.360 312.400,111.524 312.400 C 111.688 312.400,112.253 313.758,112.780 315.419 C 113.306 317.079,113.878 318.525,114.051 318.631 C 114.224 318.738,114.264 319.090,114.140 319.413 C 113.960 319.881,114.322 320.000,115.932 320.000 L 117.949 320.000 119.200 316.000 C 119.888 313.800,120.632 312.000,120.852 312.000 C 121.073 312.000,121.140 311.640,121.000 311.200 C 120.840 310.695,120.928 310.400,121.240 310.400 C 121.511 310.400,121.615 310.282,121.470 310.137 C 121.325 309.992,121.407 309.632,121.652 309.337 C 121.897 309.042,121.964 308.800,121.800 308.800 C 121.636 308.800,121.687 308.575,121.913 308.300 C 122.139 308.025,122.624 306.765,122.991 305.500 C 123.357 304.235,123.807 303.200,123.991 303.200 C 124.175 303.200,124.238 302.867,124.131 302.460 C 124.025 302.052,124.221 301.436,124.568 301.089 C 124.914 300.743,125.089 300.176,124.956 299.830 C 124.823 299.483,124.894 299.200,125.113 299.200 C 125.332 299.200,125.486 298.904,125.456 298.543 C 125.425 298.182,125.625 297.807,125.900 297.710 C 126.292 297.571,126.400 299.953,126.400 308.767 L 126.400 320.000 128.200 320.000 L 130.000 320.000 130.000 306.200 C 130.000 298.610,129.865 292.386,129.700 292.368 C 124.921 291.864,124.238 292.122,123.771 294.613 C 123.628 295.376,123.340 296.000,123.132 296.000 C 122.923 296.000,122.864 296.180,123.000 296.400 C 123.136 296.620,123.044 296.800,122.797 296.800 C 122.535 296.800,122.448 297.121,122.589 297.566 C 122.723 297.988,122.642 298.450,122.410 298.594 C 122.177 298.738,122.091 299.023,122.217 299.228 C 122.344 299.432,122.227 299.600,121.957 299.600 C 121.687 299.600,121.585 299.718,121.730 299.863 C 121.875 300.008,121.832 300.323,121.634 300.563 C 121.437 300.803,120.976 302.035,120.609 303.300 C 120.243 304.565,119.793 305.600,119.609 305.600 C 119.425 305.600,119.362 305.933,119.469 306.340 C 119.575 306.748,119.367 307.376,119.006 307.737 C 118.644 308.098,118.453 308.563,118.581 308.769 C 118.709 308.976,118.627 309.260,118.400 309.400 C 118.173 309.540,118.083 309.810,118.200 310.000 C 118.317 310.190,118.242 310.450,118.033 310.580 C 117.824 310.709,117.359 311.825,117.000 313.061 C 116.640 314.296,116.207 315.148,116.037 314.953 C 115.679 314.545,114.000 309.217,114.000 308.489 C 114.000 308.220,113.820 308.000,113.600 308.000 C 113.380 308.000,113.229 307.865,113.265 307.700 C 113.300 307.535,113.119 306.890,112.862 306.266 C 112.605 305.643,112.496 304.968,112.621 304.766 C 112.745 304.565,112.674 304.400,112.463 304.400 C 112.251 304.400,111.692 303.131,111.221 301.579 C 110.750 300.027,110.163 298.272,109.918 297.679 C 109.673 297.086,109.508 296.375,109.553 296.100 C 109.598 295.825,109.437 295.600,109.194 295.600 C 108.951 295.600,108.864 295.420,109.000 295.200 C 109.136 294.980,109.036 294.800,108.777 294.800 C 108.504 294.800,108.394 294.465,108.516 294.000 C 108.631 293.560,108.562 293.200,108.363 293.200 C 108.163 293.200,108.000 292.930,108.000 292.600 C 108.000 292.128,107.444 292.000,105.400 292.000 L 102.800 292.000 102.800 306.000 M278.866 292.741 C 278.572 292.933,278.349 293.205,278.370 293.347 C 278.392 293.488,278.132 294.267,277.793 295.079 C 277.454 295.890,277.064 297.014,276.925 297.577 C 276.787 298.139,276.318 299.410,275.882 300.400 C 275.447 301.390,275.035 302.634,274.966 303.164 C 274.897 303.694,274.665 304.236,274.450 304.369 C 274.235 304.502,273.476 306.318,272.764 308.405 C 272.051 310.492,271.363 312.290,271.234 312.400 C 271.105 312.510,270.938 312.960,270.862 313.400 C 270.786 313.840,270.578 314.380,270.399 314.600 C 270.131 314.930,268.400 319.507,268.400 319.886 C 268.400 319.949,269.170 320.000,270.111 320.000 C 271.867 320.000,273.222 319.066,272.894 318.081 C 272.805 317.816,272.948 317.600,273.209 317.600 C 273.471 317.600,273.584 317.336,273.460 317.013 C 273.336 316.690,273.395 316.327,273.591 316.205 C 273.787 316.084,274.234 314.999,274.585 313.793 L 275.222 311.600 281.191 311.600 L 287.160 311.600 288.429 315.631 C 289.820 320.049,289.872 320.103,292.557 319.924 L 294.411 319.800 293.594 318.280 C 293.145 317.444,292.883 316.589,293.012 316.380 C 293.141 316.171,293.046 316.000,292.800 316.000 C 292.554 316.000,292.455 315.835,292.579 315.634 C 292.703 315.433,292.665 315.208,292.494 315.134 C 292.138 314.980,290.000 309.629,290.000 308.890 C 290.000 308.621,289.820 308.400,289.600 308.400 C 289.380 308.400,289.233 308.265,289.274 308.100 C 289.315 307.935,289.076 307.170,288.743 306.400 C 288.409 305.630,287.631 303.560,287.013 301.800 C 286.394 300.040,285.694 298.475,285.456 298.322 C 285.218 298.169,285.144 297.922,285.293 297.774 C 285.441 297.626,285.290 297.233,284.958 296.901 C 284.626 296.569,284.449 296.050,284.564 295.748 C 284.680 295.447,284.606 295.200,284.399 295.200 C 284.192 295.200,283.872 294.615,283.688 293.900 C 283.337 292.539,280.295 291.808,278.866 292.741 M281.372 296.445 C 281.221 296.689,281.296 297.012,281.539 297.162 C 281.782 297.312,282.030 297.877,282.090 298.417 C 282.151 298.958,282.301 299.490,282.426 299.600 C 282.704 299.847,285.229 306.811,285.289 307.500 C 285.314 307.775,285.494 308.000,285.690 308.000 C 285.887 308.000,285.936 308.180,285.800 308.400 C 285.203 309.366,276.321 308.882,276.626 307.900 C 276.780 307.405,277.043 306.946,277.210 306.881 C 277.378 306.815,277.430 306.437,277.326 306.040 C 277.223 305.644,277.392 305.065,277.702 304.755 C 278.013 304.444,278.290 303.923,278.318 303.595 C 278.346 303.268,278.912 301.470,279.576 299.600 C 280.240 297.730,280.787 296.155,280.791 296.100 C 280.796 296.045,280.991 296.000,281.224 296.000 C 281.457 296.000,281.524 296.200,281.372 296.445 M140.900 313.461 C 140.405 313.568,140.000 313.804,140.000 313.984 C 140.000 314.286,138.108 314.989,137.566 314.888 C 137.438 314.864,136.898 315.549,136.366 316.411 C 135.835 317.273,135.254 317.983,135.076 317.989 C 134.898 317.995,134.875 318.197,135.024 318.438 C 135.173 318.679,135.063 319.309,134.780 319.838 C 134.358 320.627,134.361 320.980,134.800 321.799 C 135.094 322.349,135.215 322.919,135.068 323.065 C 134.437 323.696,138.255 326.713,140.611 327.446 C 141.925 327.854,143.054 328.307,143.119 328.452 C 143.185 328.597,143.590 328.623,144.019 328.511 C 144.449 328.399,144.800 328.491,144.800 328.716 C 144.800 328.941,145.160 329.031,145.600 328.916 C 146.061 328.795,146.400 328.904,146.400 329.171 C 146.400 329.426,146.625 329.598,146.900 329.553 C 147.739 329.416,151.768 331.166,151.418 331.515 C 151.319 331.614,151.500 331.957,151.819 332.276 C 153.287 333.744,151.511 338.000,149.431 338.000 C 149.084 338.000,148.800 338.183,148.800 338.408 C 148.800 338.638,148.383 338.711,147.844 338.575 C 147.318 338.443,146.767 338.530,146.620 338.768 C 146.278 339.321,144.528 339.331,144.188 338.781 C 144.046 338.550,143.630 338.411,143.265 338.471 C 142.899 338.531,142.375 338.439,142.100 338.266 C 141.825 338.094,141.600 338.066,141.600 338.204 C 141.600 338.342,141.050 338.063,140.378 337.584 C 138.840 336.489,137.136 333.832,137.449 333.017 C 137.644 332.509,137.315 332.400,135.596 332.400 C 133.518 332.400,133.508 332.406,133.775 333.500 C 133.922 334.105,134.044 334.915,134.046 335.300 C 134.048 335.685,134.229 336.000,134.448 336.000 C 134.668 336.000,134.736 336.180,134.600 336.400 C 134.464 336.620,134.558 336.800,134.810 336.800 C 135.061 336.800,135.193 337.021,135.103 337.290 C 134.900 337.899,137.741 340.320,139.041 340.646 C 139.568 340.778,140.000 341.042,140.000 341.231 C 140.000 341.420,140.252 341.478,140.560 341.360 C 140.867 341.242,141.226 341.319,141.357 341.531 C 141.694 342.076,148.679 342.120,149.013 341.579 C 149.160 341.340,149.527 341.240,149.828 341.355 C 150.128 341.471,150.483 341.390,150.615 341.176 C 150.747 340.962,151.023 340.891,151.228 341.017 C 151.432 341.144,151.600 341.087,151.600 340.891 C 151.600 340.695,152.045 340.297,152.588 340.006 C 154.680 338.887,157.628 331.600,155.989 331.600 C 155.856 331.600,155.443 330.961,155.071 330.179 C 154.698 329.398,153.856 328.453,153.199 328.079 C 152.542 327.706,152.004 327.254,152.003 327.076 C 152.001 326.898,151.820 326.864,151.600 327.000 C 151.380 327.136,151.200 327.073,151.200 326.861 C 151.200 326.649,150.840 326.569,150.400 326.684 C 149.922 326.809,149.600 326.696,149.600 326.404 C 149.600 326.135,149.352 326.010,149.049 326.126 C 148.746 326.242,148.341 326.195,148.149 326.020 C 147.957 325.845,146.450 325.385,144.800 324.996 C 140.580 324.003,139.235 323.201,138.639 321.322 C 138.091 319.596,140.554 316.138,142.052 316.529 C 142.503 316.647,142.700 316.561,142.546 316.313 C 142.377 316.039,143.192 315.957,144.973 316.071 C 146.727 316.182,147.782 316.442,148.021 316.821 C 148.223 317.139,148.391 317.239,148.394 317.042 C 148.397 316.844,148.891 317.204,149.490 317.842 C 150.090 318.479,150.540 319.135,150.490 319.300 C 150.441 319.465,150.591 319.600,150.824 319.600 C 151.057 319.600,151.136 319.780,151.000 320.000 C 150.864 320.220,150.943 320.400,151.176 320.400 C 151.409 320.400,151.600 320.760,151.600 321.200 C 151.600 321.881,151.867 322.000,153.400 322.000 C 155.480 322.000,155.648 321.535,154.554 318.802 C 154.037 317.509,151.200 313.996,151.200 314.649 C 151.200 314.742,150.724 314.506,150.142 314.125 C 149.084 313.432,143.037 312.997,140.900 313.461 M245.200 329.800 L 245.200 343.600 251.516 343.600 C 258.127 343.600,262.266 342.939,262.915 341.780 C 263.094 341.461,263.591 341.200,264.020 341.200 C 264.449 341.200,264.800 341.026,264.800 340.814 C 264.800 340.602,265.330 339.592,265.978 338.571 C 266.625 337.549,267.270 336.193,267.409 335.557 C 267.549 334.921,267.784 334.400,267.932 334.400 C 268.079 334.400,268.200 332.240,268.200 329.600 C 268.200 326.960,268.088 324.800,267.952 324.800 C 267.816 324.800,267.477 323.990,267.200 323.000 C 266.923 322.010,266.539 321.200,266.348 321.200 C 266.157 321.200,266.000 321.038,266.000 320.840 C 266.000 320.642,265.325 319.801,264.500 318.972 C 262.121 316.579,259.639 316.000,251.764 316.000 L 245.200 316.000 245.200 329.800 M261.036 320.621 C 264.465 323.400,265.915 335.137,262.969 336.267 C 262.658 336.386,262.497 336.633,262.609 336.815 C 263.663 338.520,258.687 340.395,253.100 340.398 L 248.800 340.400 248.800 329.769 L 248.800 319.138 254.164 319.269 C 259.465 319.398,259.546 319.414,261.036 320.621 M159.488 324.275 C 159.101 326.296,159.334 326.400,164.243 326.400 L 168.800 326.400 168.800 338.600 L 168.800 350.800 170.600 350.800 L 172.400 350.800 172.400 338.600 L 172.400 326.400 177.200 326.400 L 182.000 326.400 182.000 324.800 L 182.000 323.200 170.847 323.200 L 159.693 323.200 159.488 324.275 M216.000 337.800 L 216.000 351.600 217.800 351.600 L 219.600 351.600 219.600 345.600 L 219.600 339.600 224.224 339.600 C 227.617 339.600,228.771 339.723,228.562 340.062 C 228.387 340.345,228.452 340.415,228.730 340.243 C 230.104 339.394,231.918 341.998,233.018 346.400 C 233.375 347.830,233.940 349.304,234.273 349.675 C 234.606 350.046,234.772 350.522,234.641 350.733 C 234.299 351.287,235.380 351.600,237.633 351.600 L 239.602 351.600 238.801 350.106 C 238.360 349.284,238.000 348.384,238.000 348.106 C 238.000 347.828,237.809 347.600,237.576 347.600 C 237.343 347.600,237.256 347.432,237.383 347.228 C 237.509 347.023,237.423 346.738,237.190 346.594 C 236.958 346.450,236.877 345.988,237.011 345.566 C 237.156 345.108,237.065 344.800,236.784 344.800 C 236.526 344.800,236.418 344.530,236.545 344.200 C 236.671 343.870,236.625 343.600,236.442 343.600 C 236.259 343.600,235.803 342.800,235.430 341.823 C 234.958 340.586,234.393 339.887,233.576 339.525 C 232.262 338.944,231.997 338.000,233.146 338.000 C 233.556 338.000,234.350 337.640,234.909 337.200 C 236.004 336.339,236.599 336.154,236.200 336.800 C 235.798 337.451,236.257 337.256,236.851 336.523 C 237.224 336.063,237.240 335.943,236.900 336.147 C 236.109 336.622,236.318 335.682,237.200 334.800 C 238.130 333.870,238.415 328.400,237.533 328.400 C 237.277 328.400,237.186 328.281,237.331 328.135 C 237.820 327.646,234.556 324.881,232.970 324.440 C 232.089 324.196,228.023 324.003,223.700 324.002 L 216.000 324.000 216.000 337.800 M187.374 326.923 C 187.264 327.211,187.224 333.556,187.287 341.023 L 187.400 354.600 197.500 354.707 L 207.600 354.814 207.600 353.215 L 207.600 351.617 199.500 351.508 L 191.400 351.400 191.287 346.700 L 191.175 342.000 198.810 342.000 L 206.446 342.000 206.323 340.300 L 206.200 338.600 198.700 338.491 L 191.200 338.382 191.200 334.191 L 191.200 330.000 199.200 330.000 L 207.200 330.000 207.200 328.200 L 207.200 326.400 197.387 326.400 C 189.675 326.400,187.532 326.512,187.374 326.923 M232.480 327.926 C 233.430 328.513,233.880 329.048,233.737 329.420 C 233.615 329.739,233.714 330.000,233.957 330.000 C 234.207 330.000,234.400 330.697,234.400 331.600 C 234.400 332.480,234.220 333.200,234.000 333.200 C 233.780 333.200,233.600 333.439,233.600 333.730 C 233.600 335.606,231.788 336.194,225.568 336.337 L 219.600 336.473 219.600 331.903 C 219.600 329.390,219.735 327.196,219.900 327.027 C 220.664 326.247,230.954 326.982,232.480 327.926 " stroke="none" fill="#fbfbfb" fill-rule="evenodd"></path><path id="path2" d="M221.709 55.600 C 221.709 56.590,221.787 56.995,221.882 56.500 C 221.978 56.005,221.978 55.195,221.882 54.700 C 221.787 54.205,221.709 54.610,221.709 55.600 M346.998 204.200 C 346.998 286.920,347.044 320.700,347.100 279.267 C 347.156 237.835,347.156 170.155,347.100 128.867 C 347.044 87.580,346.998 121.480,346.998 204.200 M350.198 204.000 C 350.198 286.610,350.244 320.405,350.300 279.100 C 350.356 237.795,350.356 170.205,350.300 128.900 C 350.244 87.595,350.198 121.390,350.198 204.000 M142.261 60.300 C 142.159 60.465,144.893 60.554,148.337 60.497 C 160.192 60.301,161.378 60.164,151.924 60.082 C 146.712 60.037,142.363 60.135,142.261 60.300 M209.500 65.498 C 211.535 65.571,214.865 65.571,216.900 65.498 C 218.935 65.425,217.270 65.366,213.200 65.366 C 209.130 65.366,207.465 65.425,209.500 65.498 M221.968 80.100 C 221.849 80.960,221.910 81.450,222.112 81.248 C 222.305 81.055,222.398 80.381,222.319 79.749 C 222.187 78.691,222.159 78.719,221.968 80.100 M272.582 108.503 C 272.476 108.779,272.437 115.124,272.495 122.603 L 272.601 136.200 272.800 122.100 C 272.910 114.345,272.949 108.000,272.887 108.000 C 272.826 108.000,272.688 108.226,272.582 108.503 M108.105 136.687 C 108.714 136.779,109.614 136.777,110.105 136.682 C 110.597 136.587,110.100 136.511,109.000 136.514 C 107.900 136.517,107.497 136.595,108.105 136.687 M112.200 155.038 C 114.074 155.339,116.709 155.377,116.538 155.100 C 116.436 154.935,115.238 154.825,113.876 154.854 C 112.514 154.884,111.760 154.967,112.200 155.038 M148.969 181.000 C 148.970 185.620,149.028 187.455,149.099 185.078 C 149.170 182.701,149.169 178.921,149.098 176.678 C 149.027 174.435,148.969 176.380,148.969 181.000 M207.200 199.600 C 207.200 199.851,209.800 200.000,214.200 200.000 C 218.600 200.000,221.200 199.851,221.200 199.600 C 221.200 199.349,218.600 199.200,214.200 199.200 C 209.800 199.200,207.200 199.349,207.200 199.600 M260.300 210.689 C 261.015 210.778,262.185 210.778,262.900 210.689 C 263.615 210.601,263.030 210.528,261.600 210.528 C 260.170 210.528,259.585 210.601,260.300 210.689 M281.457 210.707 C 281.353 210.876,282.017 210.957,282.934 210.886 C 285.625 210.679,285.953 210.496,283.724 210.446 C 282.582 210.421,281.562 210.538,281.457 210.707 M208.323 215.899 C 211.031 215.968,215.351 215.968,217.923 215.899 C 220.495 215.829,218.280 215.772,213.000 215.773 C 207.720 215.773,205.615 215.830,208.323 215.899 M283.990 276.449 C 283.865 283.729,283.936 287.446,284.200 287.346 C 284.451 287.249,284.562 284.554,284.497 280.096 C 284.299 266.371,284.178 265.505,283.990 276.449 M106.456 274.000 C 106.456 274.330,106.611 274.960,106.800 275.400 C 107.017 275.904,107.144 275.978,107.144 275.600 C 107.144 275.270,106.989 274.640,106.800 274.200 C 106.583 273.696,106.456 273.622,106.456 274.000 M281.000 312.000 L 275.400 312.235 280.876 312.317 C 284.188 312.367,286.450 312.242,286.600 312.000 C 286.736 311.780,286.792 311.637,286.724 311.683 C 286.656 311.728,284.080 311.871,281.000 312.000 M216.400 323.600 C 216.400 323.851,218.875 324.000,223.024 324.000 C 227.337 324.000,229.561 323.861,229.400 323.600 C 229.252 323.360,226.596 323.200,222.776 323.200 C 218.792 323.200,216.400 323.350,216.400 323.600 M219.600 331.600 C 219.600 334.267,219.758 336.000,220.000 336.000 C 220.242 336.000,220.400 334.267,220.400 331.600 C 220.400 328.933,220.242 327.200,220.000 327.200 C 219.758 327.200,219.600 328.933,219.600 331.600 M268.000 329.624 C 268.000 330.517,268.145 331.158,268.323 331.048 C 268.632 330.856,268.477 328.000,268.156 328.000 C 268.070 328.000,268.000 328.731,268.000 329.624 M195.521 330.299 C 197.788 330.370,201.388 330.370,203.521 330.298 C 205.655 330.226,203.800 330.168,199.400 330.168 C 195.000 330.168,193.255 330.227,195.521 330.299 M219.759 346.000 C 219.759 349.190,219.821 350.495,219.897 348.900 C 219.973 347.305,219.973 344.695,219.897 343.100 C 219.821 341.505,219.759 342.810,219.759 346.000 M170.600 350.800 L 168.600 351.074 170.476 351.137 C 171.508 351.172,172.464 351.020,172.600 350.800 C 172.736 350.580,172.792 350.428,172.724 350.463 C 172.656 350.497,171.700 350.649,170.600 350.800 M195.921 351.099 C 198.188 351.170,201.788 351.170,203.921 351.098 C 206.055 351.026,204.200 350.968,199.800 350.968 C 195.400 350.968,193.655 351.027,195.921 351.099 " stroke="none" fill="#cccccc" fill-rule="evenodd"></path><path id="path3" d="M169.778 66.600 C 169.778 73.420,169.832 76.266,169.899 72.925 C 169.966 69.584,169.966 64.004,169.899 60.525 C 169.833 57.046,169.778 59.780,169.778 66.600 M231.500 57.882 C 231.995 57.978,232.805 57.978,233.300 57.882 C 233.795 57.787,233.390 57.709,232.400 57.709 C 231.410 57.709,231.005 57.787,231.500 57.882 M149.680 75.498 C 151.594 75.571,154.834 75.571,156.880 75.498 C 158.926 75.426,157.360 75.366,153.400 75.365 C 149.440 75.365,147.766 75.424,149.680 75.498 M254.700 77.082 C 255.195 77.178,256.005 77.178,256.500 77.082 C 256.995 76.987,256.590 76.909,255.600 76.909 C 254.610 76.909,254.205 76.987,254.700 77.082 M273.700 77.087 C 274.305 77.178,275.295 77.178,275.900 77.087 C 276.505 76.995,276.010 76.920,274.800 76.920 C 273.590 76.920,273.095 76.995,273.700 77.087 M134.291 155.089 C 135.001 155.177,136.261 155.179,137.091 155.092 C 137.921 155.005,137.340 154.933,135.800 154.931 C 134.260 154.929,133.581 155.000,134.291 155.089 M202.979 200.800 C 202.979 207.950,203.033 210.875,203.099 207.300 C 203.166 203.725,203.166 197.875,203.099 194.300 C 203.033 190.725,202.979 193.650,202.979 200.800 M258.980 224.800 C 258.980 232.390,259.034 235.495,259.099 231.700 C 259.165 227.905,259.165 221.695,259.099 217.900 C 259.034 214.105,258.980 217.210,258.980 224.800 M101.705 259.487 C 102.314 259.579,103.214 259.577,103.705 259.482 C 104.197 259.387,103.700 259.311,102.600 259.314 C 101.500 259.317,101.097 259.395,101.705 259.487 M281.891 259.489 C 282.601 259.577,283.861 259.579,284.691 259.492 C 285.521 259.405,284.940 259.333,283.400 259.331 C 281.860 259.329,281.181 259.400,281.891 259.489 M303.491 259.489 C 304.201 259.577,305.461 259.579,306.291 259.492 C 307.121 259.405,306.540 259.333,305.000 259.331 C 303.460 259.329,302.781 259.400,303.491 259.489 M284.400 276.400 C 284.400 282.193,284.484 286.849,284.587 286.746 C 284.858 286.475,284.896 266.363,284.626 266.093 C 284.502 265.969,284.400 270.607,284.400 276.400 M100.505 275.487 C 101.114 275.579,102.014 275.577,102.505 275.482 C 102.997 275.387,102.500 275.311,101.400 275.314 C 100.300 275.317,99.897 275.395,100.505 275.487 M99.900 279.097 C 101.495 279.173,104.105 279.173,105.700 279.097 C 107.295 279.021,105.990 278.959,102.800 278.959 C 99.610 278.959,98.305 279.021,99.900 279.097 M113.600 287.200 L 111.400 287.470 113.476 287.535 C 114.618 287.571,115.664 287.420,115.800 287.200 C 115.936 286.980,115.992 286.829,115.924 286.865 C 115.856 286.901,114.810 287.052,113.600 287.200 M91.105 287.483 C 91.602 287.579,92.322 287.575,92.705 287.475 C 93.087 287.375,92.680 287.296,91.800 287.301 C 90.920 287.305,90.607 287.387,91.105 287.483 M281.505 287.483 C 282.002 287.579,282.722 287.575,283.105 287.475 C 283.487 287.375,283.080 287.296,282.200 287.301 C 281.320 287.305,281.007 287.387,281.505 287.483 M293.305 287.487 C 293.914 287.579,294.814 287.577,295.305 287.482 C 295.797 287.387,295.300 287.311,294.200 287.314 C 293.100 287.317,292.697 287.395,293.305 287.487 M305.100 287.482 C 305.595 287.578,306.405 287.578,306.900 287.482 C 307.395 287.387,306.990 287.309,306.000 287.309 C 305.010 287.309,304.605 287.387,305.100 287.482 M280.105 292.287 C 280.714 292.379,281.614 292.377,282.105 292.282 C 282.597 292.187,282.100 292.111,281.000 292.114 C 279.900 292.117,279.497 292.195,280.105 292.287 M278.500 311.897 C 279.985 311.974,282.415 311.974,283.900 311.897 C 285.385 311.820,284.170 311.757,281.200 311.757 C 278.230 311.757,277.015 311.820,278.500 311.897 M245.738 315.694 C 246.301 316.052,255.437 316.104,255.080 315.747 C 254.941 315.608,252.678 315.473,250.052 315.447 C 247.425 315.421,245.484 315.532,245.738 315.694 M248.974 329.600 C 248.974 335.210,249.030 337.505,249.099 334.700 C 249.168 331.895,249.168 327.305,249.099 324.500 C 249.030 321.695,248.974 323.990,248.974 329.600 M268.280 328.691 C 268.590 330.700,268.800 330.861,268.800 329.090 C 268.800 328.297,268.631 327.543,268.424 327.415 C 268.199 327.276,268.141 327.791,268.280 328.691 M220.153 345.400 C 220.153 348.040,220.218 349.068,220.297 347.684 C 220.375 346.301,220.374 344.141,220.295 342.884 C 220.216 341.628,220.152 342.760,220.153 345.400 " stroke="none" fill="#bcbcbc" fill-rule="evenodd"></path><path id="path4" d="M170.192 67.400 L 170.200 81.400 176.500 81.416 L 182.801 81.431 176.606 81.306 L 170.410 81.180 170.297 67.290 L 170.184 53.400 170.192 67.400 M221.314 55.400 C 221.317 56.500,221.395 56.903,221.487 56.295 C 221.579 55.686,221.577 54.786,221.482 54.295 C 221.387 53.803,221.311 54.300,221.314 55.400 M349.797 154.600 C 349.797 210.260,349.843 232.971,349.900 205.068 C 349.957 177.165,349.957 131.625,349.900 103.868 C 349.843 76.111,349.797 98.940,349.797 154.600 M50.993 98.000 C 50.993 121.430,51.041 131.015,51.100 119.300 C 51.159 107.585,51.159 88.415,51.100 76.700 C 51.041 64.985,50.993 74.570,50.993 98.000 M173.684 67.500 C 173.638 73.495,173.735 78.400,173.900 78.400 C 174.065 78.401,174.154 75.206,174.097 71.300 C 173.903 57.871,173.767 56.622,173.684 67.500 M230.400 58.089 C 230.400 58.260,231.435 58.379,232.700 58.354 C 235.141 58.304,234.902 58.128,232.100 57.911 C 231.165 57.838,230.400 57.919,230.400 58.089 M142.151 65.200 C 142.151 67.730,142.216 68.765,142.296 67.500 C 142.375 66.235,142.375 64.165,142.296 62.900 C 142.216 61.635,142.151 62.670,142.151 65.200 M145.714 65.400 C 145.717 66.500,145.795 66.903,145.887 66.295 C 145.979 65.686,145.977 64.786,145.882 64.295 C 145.787 63.803,145.711 64.300,145.714 65.400 M192.928 67.200 C 192.928 68.630,193.001 69.215,193.089 68.500 C 193.178 67.785,193.178 66.615,193.089 65.900 C 193.001 65.185,192.928 65.770,192.928 67.200 M189.314 67.400 C 189.317 68.500,189.395 68.903,189.487 68.295 C 189.579 67.686,189.577 66.786,189.482 66.295 C 189.387 65.803,189.311 66.300,189.314 67.400 M257.294 90.877 L 257.200 104.754 255.500 104.907 L 253.800 105.060 255.513 105.130 C 257.761 105.222,257.627 106.197,257.500 90.597 L 257.389 77.000 257.294 90.877 M185.000 80.685 C 184.560 80.791,184.035 81.034,183.834 81.225 C 183.633 81.416,184.173 81.379,185.034 81.144 C 187.355 80.510,187.327 80.126,185.000 80.685 M206.500 81.499 C 209.305 81.568,213.895 81.568,216.700 81.499 C 219.505 81.430,217.210 81.374,211.600 81.374 C 205.990 81.374,203.695 81.430,206.500 81.499 M136.406 84.100 C 136.411 85.603,136.522 86.030,136.800 85.600 C 137.312 84.808,137.312 82.000,136.800 82.000 C 136.580 82.000,136.403 82.945,136.406 84.100 M241.941 82.700 L 248.882 82.819 248.734 84.376 C 248.652 85.232,248.724 85.847,248.893 85.743 C 249.062 85.638,249.200 84.843,249.200 83.976 L 249.200 82.400 242.100 82.490 L 235.000 82.580 241.941 82.700 M114.493 84.000 C 114.493 84.770,114.575 85.085,114.676 84.700 C 114.776 84.315,114.776 83.685,114.676 83.300 C 114.575 82.915,114.493 83.230,114.493 84.000 M272.300 104.629 C 271.071 105.296,270.822 105.718,271.900 105.309 C 273.356 104.756,274.577 104.005,274.000 104.018 C 273.670 104.026,272.905 104.301,272.300 104.629 M267.700 105.487 C 268.305 105.578,269.295 105.578,269.900 105.487 C 270.505 105.395,270.010 105.320,268.800 105.320 C 267.590 105.320,267.095 105.395,267.700 105.487 M109.051 107.683 C 109.325 108.127,110.400 108.080,110.400 107.625 C 110.400 107.419,110.052 107.276,109.628 107.308 C 109.203 107.340,108.944 107.509,109.051 107.683 M273.905 108.283 C 274.402 108.379,275.122 108.375,275.505 108.275 C 275.887 108.175,275.480 108.096,274.600 108.101 C 273.720 108.105,273.407 108.187,273.905 108.283 M290.433 108.166 C 290.733 108.463,294.774 108.559,295.057 108.276 C 295.209 108.124,294.193 108.000,292.800 108.000 C 291.407 108.000,290.342 108.075,290.433 108.166 M98.514 115.400 C 98.517 116.500,98.595 116.903,98.687 116.295 C 98.779 115.686,98.777 114.786,98.682 114.295 C 98.587 113.803,98.511 114.300,98.514 115.400 M286.200 116.800 C 285.341 117.680,284.772 118.400,284.936 118.400 C 285.251 118.400,286.113 117.584,287.365 116.100 C 288.590 114.647,287.893 115.066,286.200 116.800 M116.800 116.315 C 116.800 116.488,117.160 116.657,117.600 116.690 C 118.040 116.723,118.400 116.581,118.400 116.375 C 118.400 116.169,118.040 116.000,117.600 116.000 C 117.160 116.000,116.800 116.142,116.800 116.315 M112.803 124.686 C 112.805 124.859,113.255 125.208,113.804 125.463 C 114.352 125.717,114.701 125.763,114.578 125.565 C 114.252 125.037,112.799 124.318,112.803 124.686 M99.400 126.722 C 97.397 126.955,97.519 127.400,99.588 127.402 C 100.656 127.403,101.411 127.311,101.265 127.197 C 101.119 127.084,100.910 126.899,100.800 126.787 C 100.690 126.674,100.060 126.645,99.400 126.722 M50.994 189.400 C 50.994 215.800,51.041 226.659,51.100 213.531 C 51.158 200.403,51.158 178.803,51.100 165.531 C 51.041 152.259,50.994 163.000,50.994 189.400 M110.965 155.348 C 110.849 155.649,110.813 156.864,110.884 158.048 L 111.013 160.200 111.207 157.499 C 111.401 154.781,111.352 154.339,110.965 155.348 M134.483 172.076 C 134.437 177.728,134.535 182.437,134.700 182.539 C 134.865 182.641,134.954 179.637,134.897 175.863 C 134.705 163.045,134.566 161.773,134.483 172.076 M121.649 170.009 C 122.254 171.800,122.595 172.148,122.228 170.600 C 122.071 169.940,121.771 169.224,121.561 169.009 C 121.350 168.794,121.390 169.244,121.649 170.009 M145.373 182.000 C 145.373 187.390,145.430 189.595,145.499 186.900 C 145.568 184.205,145.568 179.795,145.499 177.100 C 145.430 174.405,145.373 176.610,145.373 182.000 M121.267 178.420 C 121.501 179.092,121.767 179.567,121.857 179.476 C 122.056 179.278,121.301 177.200,121.031 177.200 C 120.927 177.200,121.033 177.749,121.267 178.420 M179.200 189.620 C 180.587 190.561,181.378 190.835,180.400 190.036 C 179.850 189.586,179.220 189.217,179.000 189.215 C 178.780 189.213,178.870 189.396,179.200 189.620 M149.418 193.700 C 149.568 194.195,149.855 194.776,150.056 194.991 C 150.257 195.206,150.219 194.801,149.972 194.091 C 149.465 192.638,148.997 192.308,149.418 193.700 M178.314 193.274 C 178.517 193.477,179.550 193.904,180.610 194.223 C 183.111 194.976,182.623 194.488,179.980 193.593 C 178.860 193.214,178.110 193.070,178.314 193.274 M191.400 193.864 C 192.060 194.211,193.139 194.969,193.799 195.548 L 194.997 196.600 193.999 195.462 C 193.044 194.374,191.198 193.182,190.520 193.216 C 190.344 193.225,190.740 193.516,191.400 193.864 M164.425 197.769 L 163.050 199.400 164.605 197.913 C 165.460 197.096,166.079 196.362,165.980 196.283 C 165.881 196.203,165.181 196.872,164.425 197.769 M156.400 197.600 C 155.576 197.864,155.541 197.926,156.200 197.954 C 156.640 197.973,157.270 197.813,157.600 197.600 C 158.301 197.147,157.814 197.147,156.400 197.600 M174.000 198.800 C 173.503 199.121,173.538 199.188,174.200 199.188 C 174.640 199.188,175.270 199.013,175.600 198.800 C 176.097 198.479,176.062 198.412,175.400 198.412 C 174.960 198.412,174.330 198.587,174.000 198.800 M221.381 201.575 C 221.371 202.439,221.506 203.058,221.681 202.950 C 222.086 202.700,222.103 200.000,221.700 200.001 C 221.535 200.002,221.392 200.710,221.381 201.575 M193.178 205.500 L 191.800 207.000 193.300 205.622 C 194.696 204.338,194.984 204.000,194.678 204.000 C 194.612 204.000,193.937 204.675,193.178 205.500 M184.105 205.487 C 184.714 205.579,185.614 205.577,186.105 205.482 C 186.597 205.387,186.100 205.311,185.000 205.314 C 183.900 205.317,183.497 205.395,184.105 205.487 M261.600 210.800 L 259.000 211.062 261.700 211.131 C 263.279 211.171,264.400 211.034,264.400 210.800 C 264.400 210.580,264.355 210.431,264.300 210.469 C 264.245 210.507,263.030 210.656,261.600 210.800 M283.600 210.835 L 281.400 211.070 283.700 211.135 L 286.000 211.200 286.095 225.100 L 286.189 239.000 286.300 225.274 C 286.425 209.722,286.574 210.517,283.600 210.835 M265.818 215.300 C 265.968 215.795,266.255 216.376,266.456 216.591 C 266.657 216.806,266.619 216.401,266.372 215.691 C 265.865 214.238,265.397 213.908,265.818 215.300 M203.200 216.100 C 203.200 216.265,207.700 216.400,213.200 216.400 C 218.700 216.400,223.200 216.265,223.200 216.100 C 223.200 215.935,218.700 215.800,213.200 215.800 C 207.700 215.800,203.200 215.935,203.200 216.100 M239.160 222.922 C 239.338 223.099,240.545 223.186,241.842 223.117 L 244.200 222.990 241.518 222.795 C 240.043 222.688,238.982 222.745,239.160 222.922 M249.178 223.900 L 247.800 225.400 249.300 224.022 C 250.696 222.738,250.984 222.400,250.678 222.400 C 250.612 222.400,249.937 223.075,249.178 223.900 M269.449 225.415 C 269.810 226.507,270.264 227.573,270.458 227.785 C 270.651 227.996,270.513 227.276,270.151 226.185 C 269.790 225.093,269.336 224.027,269.142 223.815 C 268.949 223.604,269.087 224.324,269.449 225.415 M277.400 229.600 C 277.248 230.291,277.207 230.941,277.309 231.042 C 277.411 231.144,277.609 230.653,277.750 229.950 C 277.891 229.247,277.931 228.598,277.841 228.508 C 277.750 228.417,277.552 228.909,277.400 229.600 M50.977 250.600 C 50.977 256.980,51.032 259.534,51.099 256.276 C 51.167 253.017,51.166 247.797,51.099 244.676 C 51.031 241.554,50.976 244.220,50.977 250.600 M280.580 273.200 C 280.580 280.790,280.634 283.895,280.699 280.100 C 280.765 276.305,280.765 270.095,280.699 266.300 C 280.634 262.505,280.580 265.610,280.580 273.200 M307.600 273.176 C 307.600 281.796,307.746 286.843,308.000 287.000 C 308.264 287.163,308.400 282.537,308.400 273.424 C 308.400 264.475,308.259 259.600,308.000 259.600 C 307.741 259.600,307.600 264.392,307.600 273.176 M50.898 308.276 L 50.800 354.352 49.300 354.509 L 47.800 354.666 49.313 354.733 C 51.372 354.824,51.218 358.863,51.101 308.000 L 50.997 262.200 50.898 308.276 M288.284 266.400 C 288.399 266.840,288.635 267.200,288.809 267.200 C 288.983 267.200,289.031 266.840,288.916 266.400 C 288.801 265.960,288.565 265.600,288.391 265.600 C 288.217 265.600,288.169 265.960,288.284 266.400 M112.284 278.800 C 112.399 279.240,112.635 279.600,112.809 279.600 C 112.983 279.600,113.031 279.240,112.916 278.800 C 112.801 278.360,112.565 278.000,112.391 278.000 C 112.217 278.000,112.169 278.360,112.284 278.800 M296.284 285.600 C 296.169 286.040,296.217 286.400,296.391 286.400 C 296.565 286.400,296.801 286.040,296.916 285.600 C 297.031 285.160,296.983 284.800,296.809 284.800 C 296.635 284.800,296.399 285.160,296.284 285.600 M102.580 306.200 C 102.580 313.900,102.634 316.993,102.699 313.074 C 102.765 309.155,102.765 302.855,102.699 299.074 C 102.634 295.293,102.580 298.500,102.580 306.200 M126.175 309.400 C 126.175 315.340,126.231 317.826,126.299 314.924 C 126.367 312.022,126.367 307.162,126.299 304.124 C 126.231 301.086,126.175 303.460,126.175 309.400 M274.667 302.667 C 274.520 302.813,274.411 303.308,274.425 303.767 C 274.449 304.533,274.482 304.523,274.834 303.642 C 275.226 302.663,275.144 302.189,274.667 302.667 M277.400 305.200 C 277.250 305.673,277.217 306.150,277.327 306.260 C 277.437 306.370,277.650 306.073,277.800 305.600 C 277.950 305.127,277.983 304.650,277.873 304.540 C 277.763 304.430,277.550 304.727,277.400 305.200 M112.618 305.700 C 112.768 306.195,113.055 306.776,113.256 306.991 C 113.457 307.206,113.419 306.801,113.172 306.091 C 112.665 304.638,112.197 304.308,112.618 305.700 M288.485 305.900 C 289.213 307.614,289.628 307.893,289.193 306.376 C 288.977 305.622,288.800 304.959,288.800 304.903 C 288.800 304.846,288.624 304.800,288.409 304.800 C 288.172 304.800,288.202 305.234,288.485 305.900 M281.000 308.400 L 276.200 308.639 280.876 308.720 C 283.653 308.767,285.653 308.637,285.800 308.400 C 285.936 308.180,285.992 308.036,285.924 308.080 C 285.856 308.125,283.640 308.269,281.000 308.400 M138.176 314.622 C 137.412 315.234,137.413 315.238,138.200 314.876 C 138.640 314.674,139.270 314.408,139.600 314.286 C 140.118 314.093,140.115 314.059,139.576 314.032 C 139.234 314.014,138.604 314.280,138.176 314.622 M141.400 316.622 C 140.378 317.122,140.348 317.174,141.200 316.975 C 141.750 316.847,142.425 316.725,142.700 316.704 C 142.975 316.684,143.200 316.517,143.200 316.333 C 143.200 315.874,142.800 315.938,141.400 316.622 M261.634 321.447 C 262.165 322.133,262.680 322.623,262.779 322.535 C 262.877 322.447,262.443 321.886,261.813 321.288 L 260.669 320.200 261.634 321.447 M159.350 323.387 C 159.226 323.710,159.217 324.205,159.331 324.487 C 159.444 324.769,159.551 324.598,159.568 324.106 L 159.600 323.213 170.500 323.100 L 181.400 322.987 170.487 322.893 C 161.206 322.814,159.541 322.888,159.350 323.387 M236.196 326.442 C 236.633 326.969,237.038 327.475,237.096 327.567 C 237.153 327.658,237.200 327.440,237.200 327.081 C 237.200 326.722,236.795 326.216,236.300 325.956 L 235.400 325.484 236.196 326.442 M172.578 338.400 C 172.578 345.110,172.632 347.855,172.699 344.500 C 172.766 341.145,172.766 335.655,172.699 332.300 C 172.632 328.945,172.578 331.690,172.578 338.400 M222.300 327.096 C 223.675 327.174,225.925 327.174,227.300 327.096 C 228.675 327.018,227.550 326.954,224.800 326.954 C 222.050 326.954,220.925 327.018,222.300 327.096 M191.350 334.200 C 191.351 336.620,191.416 337.558,191.496 336.285 C 191.576 335.012,191.575 333.032,191.494 331.885 C 191.414 330.738,191.349 331.780,191.350 334.200 M234.109 331.600 C 234.109 332.590,234.187 332.995,234.282 332.500 C 234.378 332.005,234.378 331.195,234.282 330.700 C 234.187 330.205,234.109 330.610,234.109 331.600 M236.790 335.262 C 236.548 335.792,235.832 336.576,235.197 337.002 C 234.563 337.428,234.114 337.847,234.199 337.932 C 234.284 338.017,234.905 337.695,235.578 337.216 C 236.845 336.314,237.827 334.894,237.447 334.514 C 237.328 334.394,237.032 334.731,236.790 335.262 M144.244 338.871 C 144.498 339.283,146.288 339.305,146.537 338.900 C 146.638 338.735,146.117 338.587,145.380 338.571 C 144.643 338.555,144.132 338.690,144.244 338.871 M265.414 339.435 C 265.041 340.004,264.805 340.538,264.889 340.622 C 264.973 340.707,265.358 340.241,265.744 339.588 C 266.606 338.128,266.348 338.009,265.414 339.435 M233.200 339.339 C 233.750 339.629,234.285 339.796,234.388 339.711 C 234.670 339.480,233.490 338.812,232.800 338.812 C 232.469 338.812,232.649 339.048,233.200 339.339 M138.176 340.578 C 138.604 340.920,139.234 341.186,139.576 341.168 C 140.115 341.141,140.118 341.107,139.600 340.914 C 139.270 340.792,138.640 340.526,138.200 340.324 C 137.413 339.962,137.412 339.966,138.176 340.578 M191.380 346.699 L 191.400 351.400 199.500 351.413 L 207.601 351.425 199.613 351.304 L 191.625 351.184 191.493 346.591 L 191.360 341.999 191.380 346.699 M348.400 354.400 L 347.000 354.695 348.276 354.747 C 348.978 354.776,349.664 354.620,349.800 354.400 C 349.936 354.180,349.992 354.024,349.924 354.053 C 349.856 354.082,349.170 354.238,348.400 354.400 " stroke="none" fill="#dcdcdc" fill-rule="evenodd"></path></g></svg>